<?xml version="1.0" encoding="UTF-8"?>
<!DOCTYPE svg PUBLIC "-//W3C//DTD SVG 1.1//EN" "http://www.w3.org/Graphics/SVG/1.1/DTD/svg11.dtd">
<!-- Creator: CorelDRAW -->
<svg xmlns="http://www.w3.org/2000/svg" xml:space="preserve" width="32mm" height="55mm" version="1.1" style="shape-rendering:geometricPrecision; text-rendering:geometricPrecision; image-rendering:optimizeQuality; fill-rule:evenodd; clip-rule:evenodd"
viewBox="0 0 3200 5500"
 xmlns:xlink="http://www.w3.org/1999/xlink"
 xmlns:xodm="http://www.corel.com/coreldraw/odm/2003">
 <defs>
  <style type="text/css">
   <![CDATA[
    .str0 {stroke:#ED1C24;stroke-width:500;stroke-miterlimit:22.9256}
    .fil0 {fill:#ED1C24;fill-rule:nonzero}
   ]]>
  </style>
 </defs>
 <g id="Capa_x0020_1">
  <metadata id="CorelCorpID_0Corel-Layer"/>
  <path class="fil0 str0" d="M306.5 308.05c-36.3,36.05 -56.7,85.18 -56.7,136.2 0,51.02 20.4,100.15 56.7,136.2l2177.63 2171.29 -2177.63 2171.29c-36.3,35.91 -56.7,85.04 -56.7,136.05 0,106.4 86.43,192.6 193.12,192.6 51.16,0 100.42,-20.35 136.56,-56.4l2313.77 -2307.49c36.15,-36.05 56.55,-85.18 56.55,-136.05 0,-51.02 -20.4,-100.15 -56.7,-136.2l-2313.76 -2307.49c-36,-36.04 -85.26,-56.39 -136.42,-56.39 -51.16,0 -100.42,20.35 -136.57,56.54l0.15 -0.15z"/>
 </g>
</svg>
