<?xml version="1.0" encoding="UTF-8"?>
<!DOCTYPE svg PUBLIC "-//W3C//DTD SVG 1.1//EN" "http://www.w3.org/Graphics/SVG/1.1/DTD/svg11.dtd">
<!-- Creator: CorelDRAW -->
<svg xmlns="http://www.w3.org/2000/svg" xml:space="preserve" width="3.44mm" height="3.44mm" version="1.1" style="shape-rendering:geometricPrecision; text-rendering:geometricPrecision; image-rendering:optimizeQuality; fill-rule:evenodd; clip-rule:evenodd"
viewBox="0 0 344 344"
 xmlns:xlink="http://www.w3.org/1999/xlink"
 xmlns:xodm="http://www.corel.com/coreldraw/odm/2003">
 <defs>
  <style type="text/css">
   <![CDATA[
    .str1 {stroke:#003A55;stroke-width:7.62;stroke-miterlimit:22.9256}
    .str0 {stroke:#ED1D28;stroke-width:7.62;stroke-miterlimit:22.9256}
    .fil4 {fill:#ED1C24}
    .fil1 {fill:#FEFEFE;fill-rule:nonzero}
    .fil2 {fill:#003A55;fill-rule:nonzero}
    .fil3 {fill:#262626;fill-rule:nonzero}
    .fil0 {fill:#ED1D28;fill-rule:nonzero}
   ]]>
  </style>
 </defs>
 <g id="Capa_x0020_1">
  <metadata id="CorelCorpID_0Corel-Layer"/>
  <path class="fil0" d="M-19695.58 -46564.4c0.84,-0.01 1.76,-0.01 2.61,-0.01 275.69,0 499.27,223.58 499.27,499.25 0,259.1 -198.22,475.18 -456.36,497.43l-0.02 -347.66 124.88 0 18.52 -152.92 -143.4 0 0 -70.11c-0.21,-2.82 -0.32,-5.69 -0.32,-8.53 0,-12.85 2.18,-25.64 6.41,-37.76 11.41,-13.29 28.05,-20.95 45.57,-20.95 2.01,0 4.03,0.1 6.02,0.3l79.37 0 0 -148.7 -137.05 0c-1.18,0.01 -2.44,-0.02 -3.64,-0.02 -28.44,0 -56.64,5.34 -83.12,15.65 -61.91,23.55 -93.93,83.61 -93.93,178.33l-0.01 91.79 -89.69 0 0 152.92 89.69 0 0 331.26c-215.13,-60.69 -363.81,-257.19 -363.81,-480.76 0,-275.62 223.39,-499.26 499.02,-499.5l-0.01 -0.01z"/>
  <path class="fil0" d="M-18511.75 -46544.76c274.8,0.55 497.42,223.65 497.42,498.46 0,275.26 -223.22,498.48 -498.47,498.48 -275.25,0 -498.47,-223.22 -498.47,-498.48 0,-0.42 0,-0.9 0,-1.33 0.01,-0.1 0.01,-0.4 0.01,-0.52 0,-274.22 222.39,-496.61 496.61,-496.61 0.97,0 1.94,0 2.9,0zm-309.03 565.41c0,23.81 2.12,46.3 3.18,69.06 1.46,44.67 19.95,87.2 51.59,118.78 31.47,31.57 73.99,49.71 118.54,50.55 21.7,0 45.51,2.12 68,2.12l68.25 0c21.7,0 44.45,1.85 68,0 23.55,-1.85 46.57,0 69.32,-2.12 91.81,-3.45 165.3,-77.54 168,-169.36 2.12,-44.45 3.18,-90.75 3.18,-137.32 0,-46.57 -2.12,-92.87 -3.18,-137.05 -0.24,-45.23 -19.45,-88.33 -52.9,-118.77 -29.97,-31.59 -71.62,-49.48 -115.17,-49.48 -0.41,0 -0.85,0 -1.26,0 -24.87,0 -47.63,-2.12 -71.44,-2.12l-134.13 0.01c-23.81,0 -46.57,2.12 -69.32,2.12 -43.3,0.35 -84.74,17.77 -115.34,48.41 -31.65,31.16 -50.15,73.35 -51.61,117.74 0,20.64 0,44.45 -3.18,68 -3.18,23.55 -0.53,46.3 -0.53,69.32 0,23.02 0,46.3 0,70.11zm58.74 -205.31c2.18,-29.52 14.21,-57.49 34.14,-79.38 21.94,-19.64 49.96,-31.24 79.38,-32.8 19.58,0 42.33,0 64.03,0 21.7,0 46.3,0 70.11,0 23.81,0 46.57,0 69.06,0 22.49,0 45.51,0 66.15,0 63.99,0.71 115.8,52.38 116.65,116.41 2.12,40.22 2.91,84.67 2.91,134.14 0,49.47 -1.85,92.87 -2.91,136.26 0,0.48 0.01,1.01 0.01,1.51 0,29.57 -12.39,57.82 -34.14,77.84 -22.41,21.07 -51.79,33.22 -82.55,34.15 -21.04,2.08 -42.4,3.17 -63.6,3.17 -0.47,0 -1.01,0 -1.48,0l-134.67 0.02c-0.64,-0.02 -1.37,-0.02 -2.02,-0.02 -21.66,0 -43.39,-1.05 -64.89,-3.16 -29.63,-1.75 -57.74,-13.86 -79.39,-34.16 -22.63,-21.75 -35.69,-51.67 -36.26,-83.06 -3.18,-38.1 -3.97,-85.46 -3.97,-135.2 0,-49.74 0.79,-94.45 3.97,-135.72l-0.53 0zm139.43 249.76c27.26,30.32 66.13,47.67 106.9,47.67 1.32,0 2.67,-0.02 3.95,-0.05 0.73,-0.01 1.56,0.01 2.31,0.01 41.03,0 80.24,-17.21 108.03,-47.38 30.43,-29.08 47.68,-69.41 47.68,-111.52 0,-42.09 -17.25,-82.42 -47.68,-111.5 -28.72,-30.25 -68.61,-47.39 -110.33,-47.39 -41.7,0 -81.59,17.14 -110.31,47.38 -30.32,29.25 -47.5,69.53 -47.63,111.64 0.86,41.8 17.95,81.67 47.63,111.12l-0.55 0.02zm38.1 -185.2c19.16,-19.16 45.17,-29.93 72.24,-29.93 27.07,0 53.08,10.77 72.22,29.92 18.83,19.11 29.4,44.86 29.4,71.69 0,0.79 -0.01,1.61 -0.02,2.37 0.02,1 0.04,2.04 0.04,3.04 0,25.38 -10.46,49.66 -28.89,67.09 -17.56,19.71 -42.74,31 -69.15,31 -1.02,0 -2.08,-0.03 -3.09,-0.06 -0.71,0.03 -1.49,0.04 -2.24,0.04 -26.14,0 -51.09,-11.08 -68.63,-30.46 -19.23,-17.49 -30.2,-42.29 -30.2,-68.29 0,-0.78 0.02,-1.58 0.03,-2.34 0,-0.43 -0.01,-0.9 -0.01,-1.34 0,-27.21 10.87,-53.31 30.17,-72.47l-1.87 -0.26zm231.25 -49.48c26.46,0 37.04,-12.44 37.04,-35.98 0,-23.54 -11.38,-36.25 -37.04,-36.25 -25.66,0 -35.72,10.58 -35.72,37.04 -0.13,1.13 -0.19,2.29 -0.19,3.44 0,17.82 14.46,32.28 32.28,32.28 1.39,0 2.78,-0.09 4.15,-0.27l-0.52 -0.26z"/>
  <path class="fil0 str0" d="M-20762.2 -46575.26c275.35,0.31 498.34,223.61 498.34,498.91 0,275.49 -223.42,498.91 -498.9,498.91 -275.49,0 -498.91,-223.42 -498.91,-498.91 0,-0.11 0,-0.42 0,-0.54 -0.01,-0.63 -0.01,-1.35 -0.01,-2.02 0,-274.08 222.27,-496.35 496.35,-496.35 1.03,0 2.12,0 3.14,0l-0.01 0zm326.13 332.18c-23.41,9.54 -48.16,15.78 -73.28,18.52 26.26,-14.28 45.89,-38.33 54.63,-66.92 -21.7,15.48 -57.81,53.66 -79.38,30.98 -21.95,-25.56 -53.99,-40.28 -87.69,-40.28 -0.34,0 -0.72,0 -1.06,0 -0.3,0.01 -0.61,0.01 -0.91,0.01 -32.38,0 -63.5,12.59 -86.78,35.08 -23.15,22.7 -36.21,53.79 -36.21,86.21 0,0.84 0.01,1.74 0.03,2.57 0,0.19 0,0.43 0,0.64 0,8.88 1.4,17.73 4.13,26.17 -50.29,-2.03 -99.69,-15.08 -144.45,-38.13 -43.39,-21.65 -82.09,-51.87 -113.5,-88.77 -10.9,18.09 -16.97,38.74 -17.54,59.84 -0.01,0.77 -0.02,1.61 -0.02,2.41 0,41.49 21.48,80.02 56.77,101.83 -19.86,-0.5 -39.35,-5.82 -56.73,-15.47l0 2.04c-0.01,-0.01 -0.01,0.02 -0.01,0.02 0,29.01 10.24,57.1 28.9,79.32 17.62,22.8 43.65,37.67 72.25,41.27 -11.29,1.92 -22.68,3.35 -34.07,4.14 -2.42,0.17 -4.87,0.28 -7.29,0.28 -5.17,0 -10.34,-0.45 -15.43,-1.33 8.86,23.46 23.41,44.4 42.33,60.86 20.75,16.03 46.26,24.76 72.49,24.76 0.25,0 0.51,0 0.75,0 -45.09,31.98 -98.5,50.32 -153.73,52.66 -5.14,0.51 -10.33,0.77 -15.49,0.77 -5.16,0 -10.35,-0.26 -15.47,-0.77 55.88,35.05 120.58,53.66 186.57,53.66 1.41,0 2.96,-0.04 4.33,-0.04 114.53,0 200.2,-37.04 261.05,-114.54 57.26,-66.39 89.77,-150.67 91.85,-238.31l0 -14.45c23.53,-19.01 44.75,-40.91 62.97,-65.05l-0.01 0.02z"/>
  <path class="fil0" d="M-22546.44 -46103.45c0.02,-275.77 223.68,-499.43 499.45,-499.43 275.78,0 499.44,223.66 499.44,499.43 0,275.78 -223.6,499.44 -499.38,499.44 -0.37,0.01 -0.85,0.01 -1.22,0.01 -275.14,0 -498.28,-223.14 -498.28,-498.29 0,-0.37 0,-0.78 0,-1.15l-0.01 -0.01zm715.1 208.47c23.39,-1.56 45.61,-11.04 62.93,-26.85 12.89,-17.48 20.77,-38.22 22.72,-59.85 4.5,-32.73 6.99,-65.94 7.28,-99.07l-0.03 -44.33c-0.27,-33.77 -2.76,-67.77 -7.25,-101.18 -1.88,-21.32 -9.76,-41.71 -22.71,-58.78 -15.78,-17.16 -38.07,-26.94 -61.4,-26.94 -0.48,0 -1,0.01 -1.47,0.01 -83.58,-5.16 -211.67,-5.16 -211.67,-5.16l-2.05 -0.01c0,0 -126.99,0 -212.56,5.16 -0.05,0.01 -0.16,0.01 -0.24,0.01 -23.38,0 -45.71,9.73 -61.65,26.83 -12.95,17.07 -20.83,37.46 -22.71,58.81 -4.36,33.39 -6.96,67.32 -7.26,101.13l0.03 44.46c0.27,33.16 2.86,66.31 7.28,99.07 1.9,21.62 9.78,42.36 22.65,59.85 19.2,16.08 43.13,25.53 68.14,26.83 49.53,5.29 208.4,6.19 208.4,6.19 0,0 128.07,0.14 211.65,-6.18l-0.08 0zm-313.62 -341.57l241.44 125.89 -241.5 125.91 0.06 -251.8z"/>
  <g id="_2195303169472">
   <path class="fil0" d="M-23682.45 -46091.06c0.02,-275.77 223.68,-499.43 499.45,-499.43 275.78,0 499.44,223.66 499.44,499.43 0,275.78 -223.6,499.44 -499.38,499.44 -0.37,0.01 -0.85,0.01 -1.22,0.01 -275.14,0 -498.28,-223.14 -498.28,-498.29 0,-0.37 0,-0.78 0,-1.15l-0.01 -0.01z"/>
   <path class="fil1" d="M-22967.12 -46280.88c-4.47,-2.3 -8.85,-4.88 -13.06,-7.61 -12.26,-8.08 -23.56,-17.7 -33.54,-28.48 -25.01,-28.62 -34.36,-57.66 -37.8,-77.99l0.13 -0.01c-2.87,-16.87 -1.68,-27.79 -1.5,-27.79l-113.94 0 0 440.57c0,5.92 0,11.76 -0.25,17.54 0,0.72 -0.07,1.38 -0.11,2.16 0,0.31 0,0.64 -0.07,0.98 0,0.08 0,0.16 0,0.25 -2.44,32.09 -20.7,60.89 -48.68,76.78 -14.33,8.15 -30.53,12.44 -47.02,12.44 -0.03,0 -0.09,0 -0.12,0 -53.09,0 -96.11,-43.29 -96.11,-96.74 0,-53.46 43.02,-96.75 96.11,-96.75 0.02,0 0.07,0 0.09,0 10.01,0 20,1.6 29.5,4.69l0.14 -116.01c-8.98,-1.15 -18.07,-1.75 -27.11,-1.75 -49.72,0 -97.88,17.52 -135.97,49.46 -19.6,17.03 -36.17,37.45 -48.78,60.17 -4.81,8.29 -22.96,41.61 -25.15,95.69 -1.39,30.69 7.83,62.5 12.23,75.64l0 0.28c2.76,7.74 13.47,34.15 30.93,56.41 14.04,17.83 30.72,33.54 49.35,46.55l0 -0.28 0.27 0.28c55.15,37.49 116.31,35.03 116.31,35.03 10.59,-0.43 46.05,0 86.33,-19.09 44.66,-21.16 70.09,-52.68 70.09,-52.68 16.24,-18.82 29.18,-40.34 38.19,-63.5 10.31,-27.1 13.76,-59.6 13.76,-72.6l0.01 -233.72c1.38,0.83 19.79,13.01 19.79,13.01 0,0 26.52,17 67.9,28.07 29.69,7.88 69.68,9.54 69.68,9.54l0 -113.11c-14.01,1.52 -42.47,-2.9 -71.6,-17.43z"/>
  </g>
  <path class="fil2" d="M-19747.57 -47720.33c0.84,-0.01 1.76,-0.01 2.61,-0.01 275.69,0 499.27,223.58 499.27,499.25 0,259.1 -198.22,475.18 -456.36,497.43l-0.02 -347.66 124.88 0 18.52 -152.92 -143.4 0 0 -70.11c-0.21,-2.82 -0.32,-5.69 -0.32,-8.53 0,-12.85 2.18,-25.64 6.41,-37.76 11.41,-13.29 28.05,-20.95 45.57,-20.95 2.01,0 4.03,0.1 6.02,0.3l79.37 0 0 -148.7 -137.05 0c-1.18,0.01 -2.44,-0.02 -3.64,-0.02 -28.44,0 -56.64,5.34 -83.12,15.65 -61.91,23.55 -93.93,83.61 -93.93,178.33l-0.01 91.79 -89.69 0 0 152.92 89.69 0 0 331.26c-215.13,-60.69 -363.81,-257.19 -363.81,-480.76 0,-275.62 223.39,-499.26 499.02,-499.5l-0.01 -0.01z"/>
  <path class="fil2" d="M-18563.74 -47700.69c274.8,0.55 497.42,223.65 497.42,498.46 0,275.26 -223.22,498.48 -498.47,498.48 -275.25,0 -498.47,-223.22 -498.47,-498.48 0,-0.42 0,-0.9 0,-1.33 0.01,-0.1 0.01,-0.4 0.01,-0.52 0,-274.22 222.39,-496.61 496.61,-496.61 0.97,0 1.94,0 2.9,0zm-309.03 565.41c0,23.81 2.12,46.3 3.18,69.06 1.46,44.67 19.95,87.2 51.59,118.78 31.47,31.57 73.99,49.71 118.54,50.55 21.7,0 45.51,2.12 68,2.12l68.25 0c21.7,0 44.45,1.85 68,0 23.55,-1.85 46.57,0 69.32,-2.12 91.81,-3.45 165.3,-77.54 168,-169.36 2.12,-44.45 3.18,-90.75 3.18,-137.32 0,-46.57 -2.12,-92.87 -3.18,-137.05 -0.24,-45.23 -19.45,-88.33 -52.9,-118.77 -29.97,-31.59 -71.62,-49.48 -115.17,-49.48 -0.41,0 -0.85,0 -1.26,0 -24.87,0 -47.63,-2.12 -71.44,-2.12l-134.13 0.01c-23.81,0 -46.57,2.12 -69.32,2.12 -43.3,0.35 -84.74,17.77 -115.34,48.41 -31.65,31.16 -50.15,73.35 -51.61,117.74 0,20.64 0,44.45 -3.18,68 -3.18,23.55 -0.53,46.3 -0.53,69.32 0,23.02 0,46.3 0,70.11zm58.74 -205.31c2.18,-29.52 14.21,-57.49 34.14,-79.38 21.94,-19.64 49.96,-31.24 79.38,-32.8 19.58,0 42.33,0 64.03,0 21.7,0 46.3,0 70.11,0 23.81,0 46.57,0 69.06,0 22.49,0 45.51,0 66.15,0 63.99,0.71 115.8,52.38 116.65,116.41 2.12,40.22 2.91,84.67 2.91,134.14 0,49.47 -1.85,92.87 -2.91,136.26 0,0.48 0.01,1.01 0.01,1.51 0,29.57 -12.39,57.82 -34.14,77.84 -22.41,21.07 -51.79,33.22 -82.55,34.15 -21.04,2.08 -42.4,3.17 -63.6,3.17 -0.47,0 -1.01,0 -1.48,0l-134.67 0.02c-0.64,-0.02 -1.37,-0.02 -2.02,-0.02 -21.66,0 -43.39,-1.05 -64.89,-3.16 -29.63,-1.75 -57.74,-13.86 -79.39,-34.16 -22.63,-21.75 -35.69,-51.67 -36.26,-83.06 -3.18,-38.1 -3.97,-85.46 -3.97,-135.2 0,-49.74 0.79,-94.45 3.97,-135.72l-0.53 0zm139.43 249.76c27.26,30.32 66.13,47.67 106.9,47.67 1.32,0 2.67,-0.02 3.95,-0.05 0.73,-0.01 1.56,0.01 2.31,0.01 41.03,0 80.24,-17.21 108.03,-47.38 30.43,-29.08 47.68,-69.41 47.68,-111.52 0,-42.09 -17.25,-82.42 -47.68,-111.5 -28.72,-30.25 -68.61,-47.39 -110.33,-47.39 -41.7,0 -81.59,17.14 -110.31,47.38 -30.32,29.25 -47.5,69.53 -47.63,111.64 0.86,41.8 17.95,81.67 47.63,111.12l-0.55 0.02zm38.1 -185.2c19.16,-19.16 45.17,-29.93 72.24,-29.93 27.07,0 53.08,10.77 72.22,29.92 18.83,19.11 29.4,44.86 29.4,71.69 0,0.79 -0.01,1.61 -0.02,2.37 0.02,1 0.04,2.04 0.04,3.04 0,25.38 -10.46,49.66 -28.89,67.09 -17.56,19.71 -42.74,31 -69.15,31 -1.02,0 -2.08,-0.03 -3.09,-0.06 -0.71,0.03 -1.49,0.04 -2.24,0.04 -26.14,0 -51.09,-11.08 -68.63,-30.46 -19.23,-17.49 -30.2,-42.29 -30.2,-68.29 0,-0.78 0.02,-1.58 0.03,-2.34 0,-0.43 -0.01,-0.9 -0.01,-1.34 0,-27.21 10.87,-53.31 30.17,-72.47l-1.87 -0.26zm231.25 -49.48c26.46,0 37.04,-12.44 37.04,-35.98 0,-23.54 -11.38,-36.25 -37.04,-36.25 -25.66,0 -35.72,10.58 -35.72,37.04 -0.13,1.13 -0.19,2.29 -0.19,3.44 0,17.82 14.46,32.28 32.28,32.28 1.39,0 2.78,-0.09 4.15,-0.27l-0.52 -0.26z"/>
  <path class="fil2 str1" d="M-20814.19 -47731.19c275.35,0.31 498.34,223.61 498.34,498.91 0,275.49 -223.42,498.91 -498.9,498.91 -275.49,0 -498.91,-223.42 -498.91,-498.91 0,-0.11 0,-0.42 0,-0.54 -0.01,-0.63 -0.01,-1.35 -0.01,-2.02 0,-274.08 222.27,-496.35 496.35,-496.35 1.03,0 2.12,0 3.14,0l-0.01 0zm326.13 332.18c-23.41,9.54 -48.16,15.78 -73.28,18.52 26.26,-14.28 45.89,-38.33 54.63,-66.92 -21.7,15.48 -57.81,53.66 -79.38,30.98 -21.95,-25.56 -53.99,-40.28 -87.69,-40.28 -0.34,0 -0.72,0 -1.06,0 -0.3,0.01 -0.61,0.01 -0.91,0.01 -32.38,0 -63.5,12.59 -86.78,35.08 -23.15,22.7 -36.21,53.79 -36.21,86.21 0,0.84 0.01,1.74 0.03,2.57 0,0.19 0,0.43 0,0.64 0,8.88 1.4,17.73 4.13,26.17 -50.29,-2.03 -99.69,-15.08 -144.45,-38.13 -43.39,-21.65 -82.09,-51.87 -113.5,-88.77 -10.9,18.09 -16.97,38.74 -17.54,59.84 -0.01,0.77 -0.02,1.61 -0.02,2.41 0,41.49 21.48,80.02 56.77,101.83 -19.86,-0.5 -39.35,-5.82 -56.73,-15.47l0 2.04c-0.01,-0.01 -0.01,0.02 -0.01,0.02 0,29.01 10.24,57.1 28.9,79.32 17.62,22.8 43.65,37.67 72.25,41.27 -11.29,1.92 -22.68,3.35 -34.07,4.14 -2.42,0.17 -4.87,0.28 -7.29,0.28 -5.17,0 -10.34,-0.45 -15.43,-1.33 8.86,23.46 23.41,44.4 42.33,60.86 20.75,16.03 46.26,24.76 72.49,24.76 0.25,0 0.51,0 0.75,0 -45.09,31.98 -98.5,50.32 -153.73,52.66 -5.14,0.51 -10.33,0.77 -15.49,0.77 -5.16,0 -10.35,-0.26 -15.47,-0.77 55.88,35.05 120.58,53.66 186.57,53.66 1.41,0 2.96,-0.04 4.33,-0.04 114.53,0 200.2,-37.04 261.05,-114.54 57.26,-66.39 89.77,-150.67 91.85,-238.31l0 -14.45c23.53,-19.01 44.75,-40.91 62.97,-65.05l-0.01 0.02z"/>
  <path class="fil2" d="M-22598.43 -47259.38c0.02,-275.77 223.68,-499.43 499.45,-499.43 275.78,0 499.44,223.66 499.44,499.43 0,275.78 -223.6,499.44 -499.38,499.44 -0.37,0.01 -0.85,0.01 -1.22,0.01 -275.14,0 -498.28,-223.14 -498.28,-498.29 0,-0.37 0,-0.78 0,-1.15l-0.01 -0.01zm715.1 208.47c23.39,-1.56 45.61,-11.04 62.93,-26.85 12.89,-17.48 20.77,-38.22 22.72,-59.85 4.5,-32.73 6.99,-65.94 7.28,-99.07l-0.03 -44.33c-0.27,-33.77 -2.76,-67.77 -7.25,-101.18 -1.88,-21.32 -9.76,-41.71 -22.71,-58.78 -15.78,-17.16 -38.07,-26.94 -61.4,-26.94 -0.48,0 -1,0.01 -1.47,0.01 -83.58,-5.16 -211.67,-5.16 -211.67,-5.16l-2.05 -0.01c0,0 -126.99,0 -212.56,5.16 -0.05,0.01 -0.16,0.01 -0.24,0.01 -23.38,0 -45.71,9.73 -61.65,26.83 -12.95,17.07 -20.83,37.46 -22.71,58.81 -4.36,33.39 -6.96,67.32 -7.26,101.13l0.03 44.46c0.27,33.16 2.86,66.31 7.28,99.07 1.9,21.62 9.78,42.36 22.65,59.85 19.2,16.08 43.13,25.53 68.14,26.83 49.53,5.29 208.4,6.19 208.4,6.19 0,0 128.07,0.14 211.65,-6.18l-0.08 0zm-313.62 -341.57l241.44 125.89 -241.5 125.91 0.06 -251.8z"/>
  <g id="_2195303185120">
   <path class="fil2" d="M-23734.44 -47246.99c0.02,-275.77 223.68,-499.43 499.45,-499.43 275.78,0 499.44,223.66 499.44,499.43 0,275.78 -223.6,499.44 -499.38,499.44 -0.37,0.01 -0.85,0.01 -1.22,0.01 -275.14,0 -498.28,-223.14 -498.28,-498.29 0,-0.37 0,-0.78 0,-1.15l-0.01 -0.01z"/>
   <path class="fil1" d="M-23019.11 -47436.81c-4.47,-2.3 -8.85,-4.88 -13.06,-7.61 -12.26,-8.08 -23.56,-17.7 -33.54,-28.48 -25.01,-28.62 -34.36,-57.66 -37.8,-77.99l0.13 -0.01c-2.87,-16.87 -1.68,-27.79 -1.5,-27.79l-113.94 0 0 440.57c0,5.92 0,11.76 -0.25,17.54 0,0.72 -0.07,1.38 -0.11,2.16 0,0.31 0,0.64 -0.07,0.98 0,0.08 0,0.16 0,0.25 -2.44,32.09 -20.7,60.89 -48.68,76.78 -14.33,8.15 -30.53,12.44 -47.02,12.44 -0.03,0 -0.09,0 -0.12,0 -53.09,0 -96.11,-43.29 -96.11,-96.74 0,-53.46 43.02,-96.75 96.11,-96.75 0.02,0 0.07,0 0.09,0 10.01,0 20,1.6 29.5,4.69l0.14 -116.01c-8.98,-1.15 -18.07,-1.75 -27.11,-1.75 -49.72,0 -97.88,17.52 -135.97,49.46 -19.6,17.03 -36.17,37.45 -48.78,60.17 -4.81,8.29 -22.96,41.61 -25.15,95.69 -1.39,30.69 7.83,62.5 12.23,75.64l0 0.28c2.76,7.74 13.47,34.15 30.93,56.41 14.04,17.83 30.72,33.54 49.35,46.55l0 -0.28 0.27 0.28c55.15,37.49 116.31,35.03 116.31,35.03 10.59,-0.43 46.05,0 86.33,-19.09 44.66,-21.16 70.09,-52.68 70.09,-52.68 16.24,-18.82 29.18,-40.34 38.19,-63.5 10.31,-27.1 13.76,-59.6 13.76,-72.6l0.01 -233.72c1.38,0.83 19.79,13.01 19.79,13.01 0,0 26.52,17 67.9,28.07 29.69,7.88 69.68,9.54 69.68,9.54l0 -113.11c-14.01,1.52 -42.47,-2.9 -71.6,-17.43z"/>
  </g>
  <path class="fil3" d="M-19822.16 -48864.44c0.84,-0.01 1.76,-0.01 2.61,-0.01 275.69,0 499.27,223.58 499.27,499.25 0,259.1 -198.22,475.18 -456.36,497.43l-0.02 -347.66 124.88 0 18.52 -152.92 -143.4 0 0 -70.11c-0.21,-2.82 -0.32,-5.69 -0.32,-8.53 0,-12.85 2.18,-25.64 6.41,-37.76 11.41,-13.29 28.05,-20.95 45.57,-20.95 2.01,0 4.03,0.1 6.02,0.3l79.37 0 0 -148.7 -137.05 0c-1.18,0.01 -2.44,-0.02 -3.64,-0.02 -28.44,0 -56.64,5.34 -83.12,15.65 -61.91,23.55 -93.93,83.61 -93.93,178.33l-0.01 91.79 -89.69 0 0 152.92 89.69 0 0 331.26c-215.13,-60.69 -363.81,-257.19 -363.81,-480.76 0,-275.62 223.39,-499.26 499.02,-499.5l-0.01 -0.01z"/>
  <path class="fil3" d="M-18638.33 -48844.8c274.8,0.55 497.42,223.65 497.42,498.46 0,275.26 -223.22,498.48 -498.47,498.48 -275.25,0 -498.47,-223.22 -498.47,-498.48 0,-0.42 0,-0.9 0,-1.33 0.01,-0.1 0.01,-0.4 0.01,-0.52 0,-274.22 222.39,-496.61 496.61,-496.61 0.97,0 1.94,0 2.9,0zm-309.03 565.41c0,23.81 2.12,46.3 3.18,69.06 1.46,44.67 19.95,87.2 51.59,118.78 31.47,31.57 73.99,49.71 118.54,50.55 21.7,0 45.51,2.12 68,2.12l68.25 0c21.7,0 44.45,1.85 68,0 23.55,-1.85 46.57,0 69.32,-2.12 91.81,-3.45 165.3,-77.54 168,-169.36 2.12,-44.45 3.18,-90.75 3.18,-137.32 0,-46.57 -2.12,-92.87 -3.18,-137.05 -0.24,-45.23 -19.45,-88.33 -52.9,-118.77 -29.97,-31.59 -71.62,-49.48 -115.17,-49.48 -0.41,0 -0.85,0 -1.26,0 -24.87,0 -47.63,-2.12 -71.44,-2.12l-134.13 0.01c-23.81,0 -46.57,2.12 -69.32,2.12 -43.3,0.35 -84.74,17.77 -115.34,48.41 -31.65,31.16 -50.15,73.35 -51.61,117.74 0,20.64 0,44.45 -3.18,68 -3.18,23.55 -0.53,46.3 -0.53,69.32 0,23.02 0,46.3 0,70.11zm58.74 -205.31c2.18,-29.52 14.21,-57.49 34.14,-79.38 21.94,-19.64 49.96,-31.24 79.38,-32.8 19.58,0 42.33,0 64.03,0 21.7,0 46.3,0 70.11,0 23.81,0 46.57,0 69.06,0 22.49,0 45.51,0 66.15,0 63.99,0.71 115.8,52.38 116.65,116.41 2.12,40.22 2.91,84.67 2.91,134.14 0,49.47 -1.85,92.87 -2.91,136.26 0,0.48 0.01,1.01 0.01,1.51 0,29.57 -12.39,57.82 -34.14,77.84 -22.41,21.07 -51.79,33.22 -82.55,34.15 -21.04,2.08 -42.4,3.17 -63.6,3.17 -0.47,0 -1.01,0 -1.48,0l-134.67 0.02c-0.64,-0.02 -1.37,-0.02 -2.02,-0.02 -21.66,0 -43.39,-1.05 -64.89,-3.16 -29.63,-1.75 -57.74,-13.86 -79.39,-34.16 -22.63,-21.75 -35.69,-51.67 -36.26,-83.06 -3.18,-38.1 -3.97,-85.46 -3.97,-135.2 0,-49.74 0.79,-94.45 3.97,-135.72l-0.53 0zm139.43 249.76c27.26,30.32 66.13,47.67 106.9,47.67 1.32,0 2.67,-0.02 3.95,-0.05 0.73,-0.01 1.56,0.01 2.31,0.01 41.03,0 80.24,-17.21 108.03,-47.38 30.43,-29.08 47.68,-69.41 47.68,-111.52 0,-42.09 -17.25,-82.42 -47.68,-111.5 -28.72,-30.25 -68.61,-47.39 -110.33,-47.39 -41.7,0 -81.59,17.14 -110.31,47.38 -30.32,29.25 -47.5,69.53 -47.63,111.64 0.86,41.8 17.95,81.67 47.63,111.12l-0.55 0.02zm38.1 -185.2c19.16,-19.16 45.17,-29.93 72.24,-29.93 27.07,0 53.08,10.77 72.22,29.92 18.83,19.11 29.4,44.86 29.4,71.69 0,0.79 -0.01,1.61 -0.02,2.37 0.02,1 0.04,2.04 0.04,3.04 0,25.38 -10.46,49.66 -28.89,67.09 -17.56,19.71 -42.74,31 -69.15,31 -1.02,0 -2.08,-0.03 -3.09,-0.06 -0.71,0.03 -1.49,0.04 -2.24,0.04 -26.14,0 -51.09,-11.08 -68.63,-30.46 -19.23,-17.49 -30.2,-42.29 -30.2,-68.29 0,-0.78 0.02,-1.58 0.03,-2.34 0,-0.43 -0.01,-0.9 -0.01,-1.34 0,-27.21 10.87,-53.31 30.17,-72.47l-1.87 -0.26zm231.25 -49.48c26.46,0 37.04,-12.44 37.04,-35.98 0,-23.54 -11.38,-36.25 -37.04,-36.25 -25.66,0 -35.72,10.58 -35.72,37.04 -0.13,1.13 -0.19,2.29 -0.19,3.44 0,17.82 14.46,32.28 32.28,32.28 1.39,0 2.78,-0.09 4.15,-0.27l-0.52 -0.26z"/>
  <path class="fil3 str1" d="M-20888.78 -48875.3c275.35,0.31 498.34,223.61 498.34,498.91 0,275.49 -223.42,498.91 -498.9,498.91 -275.49,0 -498.91,-223.42 -498.91,-498.91 0,-0.11 0,-0.42 0,-0.54 -0.01,-0.63 -0.01,-1.35 -0.01,-2.02 0,-274.08 222.27,-496.35 496.35,-496.35 1.03,0 2.12,0 3.14,0l-0.01 0zm326.13 332.18c-23.41,9.54 -48.16,15.78 -73.28,18.52 26.26,-14.28 45.89,-38.33 54.63,-66.92 -21.7,15.48 -57.81,53.66 -79.38,30.98 -21.95,-25.56 -53.99,-40.28 -87.69,-40.28 -0.34,0 -0.72,0 -1.06,0 -0.3,0.01 -0.61,0.01 -0.91,0.01 -32.38,0 -63.5,12.59 -86.78,35.08 -23.15,22.7 -36.21,53.79 -36.21,86.21 0,0.84 0.01,1.74 0.03,2.57 0,0.19 0,0.43 0,0.64 0,8.88 1.4,17.73 4.13,26.17 -50.29,-2.03 -99.69,-15.08 -144.45,-38.13 -43.39,-21.65 -82.09,-51.87 -113.5,-88.77 -10.9,18.09 -16.97,38.74 -17.54,59.84 -0.01,0.77 -0.02,1.61 -0.02,2.41 0,41.49 21.48,80.02 56.77,101.83 -19.86,-0.5 -39.35,-5.82 -56.73,-15.47l0 2.04c-0.01,-0.01 -0.01,0.02 -0.01,0.02 0,29.01 10.24,57.1 28.9,79.32 17.62,22.8 43.65,37.67 72.25,41.27 -11.29,1.92 -22.68,3.35 -34.07,4.14 -2.42,0.17 -4.87,0.28 -7.29,0.28 -5.17,0 -10.34,-0.45 -15.43,-1.33 8.86,23.46 23.41,44.4 42.33,60.86 20.75,16.03 46.26,24.76 72.49,24.76 0.25,0 0.51,0 0.75,0 -45.09,31.98 -98.5,50.32 -153.73,52.66 -5.14,0.51 -10.33,0.77 -15.49,0.77 -5.16,0 -10.35,-0.26 -15.47,-0.77 55.88,35.05 120.58,53.66 186.57,53.66 1.41,0 2.96,-0.04 4.33,-0.04 114.53,0 200.2,-37.04 261.05,-114.54 57.26,-66.39 89.77,-150.67 91.85,-238.31l0 -14.45c23.53,-19.01 44.75,-40.91 62.97,-65.05l-0.01 0.02z"/>
  <path class="fil3" d="M-22673.02 -48403.49c0.02,-275.77 223.68,-499.43 499.45,-499.43 275.78,0 499.44,223.66 499.44,499.43 0,275.78 -223.6,499.44 -499.38,499.44 -0.37,0.01 -0.85,0.01 -1.22,0.01 -275.14,0 -498.28,-223.14 -498.28,-498.29 0,-0.37 0,-0.78 0,-1.15l-0.01 -0.01zm715.1 208.47c23.39,-1.56 45.61,-11.04 62.93,-26.85 12.89,-17.48 20.77,-38.22 22.72,-59.85 4.5,-32.73 6.99,-65.94 7.28,-99.07l-0.03 -44.33c-0.27,-33.77 -2.76,-67.77 -7.25,-101.18 -1.88,-21.32 -9.76,-41.71 -22.71,-58.78 -15.78,-17.16 -38.07,-26.94 -61.4,-26.94 -0.48,0 -1,0.01 -1.47,0.01 -83.58,-5.16 -211.67,-5.16 -211.67,-5.16l-2.05 -0.01c0,0 -126.99,0 -212.56,5.16 -0.05,0.01 -0.16,0.01 -0.24,0.01 -23.38,0 -45.71,9.73 -61.65,26.83 -12.95,17.07 -20.83,37.46 -22.71,58.81 -4.36,33.39 -6.96,67.32 -7.26,101.13l0.03 44.46c0.27,33.16 2.86,66.31 7.28,99.07 1.9,21.62 9.78,42.36 22.65,59.85 19.2,16.08 43.13,25.53 68.14,26.83 49.53,5.29 208.4,6.19 208.4,6.19 0,0 128.07,0.14 211.65,-6.18l-0.08 0zm-313.62 -341.57l241.44 125.89 -241.5 125.91 0.06 -251.8z"/>
  <g id="_2195303174896">
   <path class="fil3" d="M-23809.03 -48391.1c0.02,-275.77 223.68,-499.43 499.45,-499.43 275.78,0 499.44,223.66 499.44,499.43 0,275.78 -223.6,499.44 -499.38,499.44 -0.37,0.01 -0.85,0.01 -1.22,0.01 -275.14,0 -498.28,-223.14 -498.28,-498.29 0,-0.37 0,-0.78 0,-1.15l-0.01 -0.01z"/>
   <path class="fil1" d="M-23093.7 -48580.92c-4.47,-2.3 -8.85,-4.88 -13.06,-7.61 -12.26,-8.08 -23.56,-17.7 -33.54,-28.48 -25.01,-28.62 -34.36,-57.66 -37.8,-77.99l0.13 -0.01c-2.87,-16.87 -1.68,-27.79 -1.5,-27.79l-113.94 0 0 440.57c0,5.92 0,11.76 -0.25,17.54 0,0.72 -0.07,1.38 -0.11,2.16 0,0.31 0,0.64 -0.07,0.98 0,0.08 0,0.16 0,0.25 -2.44,32.09 -20.7,60.89 -48.68,76.78 -14.33,8.15 -30.53,12.44 -47.02,12.44 -0.03,0 -0.09,0 -0.12,0 -53.09,0 -96.11,-43.29 -96.11,-96.74 0,-53.46 43.02,-96.75 96.11,-96.75 0.02,0 0.07,0 0.09,0 10.01,0 20,1.6 29.5,4.69l0.14 -116.01c-8.98,-1.15 -18.07,-1.75 -27.11,-1.75 -49.72,0 -97.88,17.52 -135.97,49.46 -19.6,17.03 -36.17,37.45 -48.78,60.17 -4.81,8.29 -22.96,41.61 -25.15,95.69 -1.39,30.69 7.83,62.5 12.23,75.64l0 0.28c2.76,7.74 13.47,34.15 30.93,56.41 14.04,17.83 30.72,33.54 49.35,46.55l0 -0.28 0.27 0.28c55.15,37.49 116.31,35.03 116.31,35.03 10.59,-0.43 46.05,0 86.33,-19.09 44.66,-21.16 70.09,-52.68 70.09,-52.68 16.24,-18.82 29.18,-40.34 38.19,-63.5 10.31,-27.1 13.76,-59.6 13.76,-72.6l0.01 -233.72c1.38,0.83 19.79,13.01 19.79,13.01 0,0 26.52,17 67.9,28.07 29.69,7.88 69.68,9.54 69.68,9.54l0 -113.11c-14.01,1.52 -42.47,-2.9 -71.6,-17.43z"/>
  </g>
  <path class="fil4" d="M31.7 106.81c1.99,-1.99 4.69,-3.11 7.5,-3.11 2.81,0 5.51,1.12 7.5,3.11l119.49 119.53 119.51 -119.53c1.98,-1.99 4.68,-3.11 7.49,-3.11 5.86,0 10.6,4.74 10.6,10.6 0,2.81 -1.12,5.51 -3.1,7.5l-127 127c-1.99,1.98 -4.69,3.1 -7.5,3.1 -2.8,0 -5.5,-1.12 -7.49,-3.11l-127 -127c-1.98,-1.98 -3.1,-4.68 -3.1,-7.49 0,-2.81 1.12,-5.51 3.11,-7.5l-0.01 0.01z"/>
 </g>
</svg>
