<?xml version="1.0" encoding="UTF-8"?>
<!DOCTYPE svg PUBLIC "-//W3C//DTD SVG 1.1//EN" "http://www.w3.org/Graphics/SVG/1.1/DTD/svg11.dtd">
<!-- Creator: CorelDRAW -->
<svg xmlns="http://www.w3.org/2000/svg" xml:space="preserve" width="210mm" height="212mm" version="1.1" style="shape-rendering:geometricPrecision; text-rendering:geometricPrecision; image-rendering:optimizeQuality; fill-rule:evenodd; clip-rule:evenodd"
viewBox="0 0 21000 21200"
 xmlns:xlink="http://www.w3.org/1999/xlink"
 xmlns:xodm="http://www.corel.com/coreldraw/odm/2003">
 <defs>
  <style type="text/css">
   <![CDATA[
    .fil0 {fill:#231F20;fill-rule:nonzero}
   ]]>
  </style>
 </defs>
 <g id="Capa_x0020_1">
  <metadata id="CorelCorpID_0Corel-Layer"/>
  <g id="_1670915568512">
   <g>
    <path class="fil0" d="M7849.68 10612.93l-4784.66 -1367.23c-174.29,-48.29 -358.51,51.26 -408.78,227.54 -49.94,175.29 51.59,358.51 227.54,408.78l4784.66 1367.22c30.1,8.28 60.53,12.58 90.62,12.58 143.87,0 276.16,-94.59 317.83,-240.11 50.27,-175.29 -51.59,-358.51 -227.21,-408.78z"/>
    <path class="fil0" d="M7849.68 12928.03l-4784.66 -1366.9c-174.29,-48.29 -358.51,51.26 -408.78,227.54 -49.94,175.62 51.59,358.51 227.54,408.78l4784.66 1366.9c30.1,8.27 60.53,12.57 90.62,12.57 143.87,0 276.16,-94.59 317.83,-240.11 50.27,-175.61 -51.59,-358.51 -227.21,-408.78z"/>
    <path class="fil0" d="M7849.68 8297.83l-4784.66 -1367.23c-174.29,-48.29 -358.51,51.26 -408.78,227.54 -49.94,175.29 51.59,358.51 227.54,408.78l4784.66 1367.23c30.1,8.27 60.53,12.57 90.62,12.57 143.87,0 276.16,-94.59 317.83,-240.11 50.27,-175.28 -51.59,-358.51 -227.21,-408.78z"/>
    <path class="fil0" d="M7849.68 5982.73l-4784.66 -1367.24c-174.29,-48.29 -358.51,51.26 -408.78,227.54 -49.94,175.29 51.59,358.51 227.54,408.78l4784.66 1367.23c30.1,8.28 60.53,12.58 90.62,12.58 143.87,0 276.16,-94.59 317.83,-240.11 50.27,-175.29 -51.59,-358.51 -227.21,-408.78z"/>
    <path class="fil0" d="M13126.46 11249.25c30.43,0 60.85,-4.3 90.95,-12.57l4784.66 -1367.22c175.62,-50.27 277.48,-233.49 227.54,-408.78 -50.27,-175.95 -234.16,-275.17 -408.78,-227.54l-4784.99 1367.22c-175.62,50.27 -277.48,233.49 -227.54,408.78 42,145.52 174.29,240.11 318.16,240.11z"/>
    <path class="fil0" d="M17920.71 11561.13l-4784.66 1366.9c-175.62,50.27 -277.48,233.16 -227.54,408.78 42,145.52 174.29,240.11 318.16,240.11 30.43,0 60.85,-4.3 90.95,-12.57l4784.66 -1366.9c175.62,-50.27 277.48,-233.16 227.54,-408.78 -50.6,-175.95 -234.49,-275.17 -409.11,-227.54z"/>
    <path class="fil0" d="M17920.71 6930.6l-4784.66 1367.23c-175.62,50.27 -277.48,233.49 -227.54,408.78 42,145.53 174.29,240.11 318.16,240.11 30.43,0 60.85,-4.3 90.95,-12.57l4784.66 -1367.23c175.62,-50.27 277.48,-233.49 227.54,-408.78 -50.6,-175.95 -234.49,-275.83 -409.11,-227.54z"/>
    <path class="fil0" d="M17920.71 4615.49l-4784.66 1367.23c-175.62,50.27 -277.48,233.49 -227.54,408.78 42,145.53 174.29,240.12 318.16,240.12 30.43,0 60.85,-4.3 90.95,-12.57l4784.66 -1367.23c175.62,-50.27 277.48,-233.49 227.54,-408.78 -50.6,-175.95 -234.49,-275.17 -409.11,-227.55z"/>
    <path class="fil0" d="M20817.89 153.96c-117.08,-89.63 -259.29,-136.59 -403.82,-136.59 -56.89,0 -114.1,7.28 -169.99,21.83l-9751.22 2600.52 -9751.21 -2600.52c-56.22,-14.88 -113.44,-21.83 -170.33,-21.83 -144.53,0 -286.41,46.96 -403.49,136.59 -162.71,125.34 -258.29,319.15 -258.29,524.53l0 16536.12c0,299.64 201.41,561.91 490.8,639.3l8556.96 2281.7c242.09,613.17 836.74,1048.08 1535.56,1048.08 698.83,0 1293.48,-434.91 1535.58,-1048.08l8556.96 -2281.7c289.38,-77.39 490.79,-339.66 490.79,-639.3l0 -16536.12c0,-205.38 -95.58,-399.19 -258.3,-524.53zm-10325.03 17722.44c57.22,0 114.76,-7.28 170.66,-22.16l9751.22 -2600.52 0 646.24 -9921.88 2626.32 -9921.87 -2626.32 0 -646.24 9751.22 2600.19c55.9,15.22 113.43,22.49 170.65,22.49zm-9922.53 -17197.57c0,0 0.33,0 0.99,0l0.01 -0.34 9590.81 2557.53 0 13890.62 -9591.15 -2557.53 -0.66 -13890.28zm10907.77 18919.02c-26.13,378.02 -259.62,698.17 -591.34,842.04l-223.57 59.86c-55.89,14.88 -113.44,22.16 -170.66,22.16 -57.22,0 -114.75,-7.28 -170.65,-22.16l-223.57 -59.86c-331.72,-143.87 -565.22,-464.01 -591.34,-842.04l-8935.98 -2383.24 0 -630.37 9837.2 2604.16c27.78,7.28 56.23,10.92 84.67,10.92 28.44,0 56.89,-3.64 84.67,-10.91l9837.21 -2604.17 0 630.37 -8936.64 2383.24zm-654.51 -2471.21l0 -13890.62 9591.15 -2557.53 0 13890.62 -9591.15 2557.53z"/>
   </g>
  </g>
 </g>
</svg>
