<?xml version="1.0" encoding="UTF-8"?>
<!DOCTYPE svg PUBLIC "-//W3C//DTD SVG 1.1//EN" "http://www.w3.org/Graphics/SVG/1.1/DTD/svg11.dtd">
<!-- Creator: CorelDRAW -->
<svg xmlns="http://www.w3.org/2000/svg" xml:space="preserve" width="210mm" height="212mm" version="1.1" style="shape-rendering:geometricPrecision; text-rendering:geometricPrecision; image-rendering:optimizeQuality; fill-rule:evenodd; clip-rule:evenodd"
viewBox="0 0 21000 21200"
 xmlns:xlink="http://www.w3.org/1999/xlink"
 xmlns:xodm="http://www.corel.com/coreldraw/odm/2003">
 <defs>
  <style type="text/css">
   <![CDATA[
    .fil0 {fill:#231F20;fill-rule:nonzero}
   ]]>
  </style>
 </defs>
 <g id="Capa_x0020_1">
  <metadata id="CorelCorpID_0Corel-Layer"/>
  <g id="_1671322326016">
   <path class="fil0" d="M10492.87 16.94c-2803.59,0 -5350.54,1092.07 -7243.96,2871.72l-362.81 -362.81 0 -855.27c0,-55.56 -16.87,-105.17 -41.01,-151.14 -4.63,-20.84 -16.21,-43.33 -42.67,-69.78l-1335.81 -1335.82 -0.33 0c-59.86,-60.19 -142.55,-96.9 -233.83,-96.9 -182.89,0 -330.73,147.83 -330.73,330.73l0 661.46 -661.45 -0.01c-182.9,0 -330.73,147.84 -330.73,330.73 0,91.28 37.04,173.96 96.9,233.83l0 0.33 1322.59 1322.26c0.33,0.33 0.33,0.33 0.66,0.66l13.23 13.23c26.46,26.46 48.62,38.03 69.45,42.66 45.64,23.81 95.58,40.68 150.81,40.68l855.27 0 362.81 362.81c-1779.66,1893.42 -2871.72,4440.37 -2871.72,7243.96 0,5844.98 4738.36,10583.33 10583.33,10583.33 5844.97,0 10583.33,-4738.36 10583.33,-10583.33 0,-5844.97 -4738.35,-10583.33 -10583.33,-10583.33zm-8268.23 2315.1l-524.2 0 -660.47 -660.13 523.21 -1.33 3.97 -520.57 657.49 657.49 0 524.54zm8268.23 18190.11c-5479.52,0 -9921.88,-4442.36 -9921.88,-9921.88 0,-2620.7 1017.98,-5002.94 2677.91,-6776.31l935.3 935.3c-1420.8,1533.92 -2290.29,3585.44 -2290.29,5841.01 0,4748.94 3850.02,8598.96 8598.96,8598.96 4748.94,0 8598.96,-3850.02 8598.96,-8598.96 0,-4748.94 -3850.02,-8598.96 -8598.96,-8598.96 -2255.57,0 -4307.09,869.49 -5841.01,2290.3l-935.3 -935.3c1773.7,-1659.93 4155.28,-2677.92 6776.31,-2677.92 5479.52,0 9921.88,4442.35 9921.88,9921.88 0,5479.53 -4442.36,9921.88 -9921.88,9921.88zm-4899.75 -14353.98c-1062.3,1173.09 -1714.83,2724.55 -1714.83,4432.1 0,3653.23 2961.35,6614.58 6614.58,6614.58 3653.23,0 6614.58,-2961.35 6614.58,-6614.58 0,-3653.23 -2961.35,-6614.58 -6614.58,-6614.58 -1707.55,0 -3259.01,652.53 -4432.1,1714.83l-941.26 -940.92c1413.87,-1301.76 3300.35,-2096.83 5373.36,-2096.83 4383.82,0 7937.5,3553.68 7937.5,7937.5 0,4383.82 -3553.68,7937.5 -7937.5,7937.5 -4383.82,0 -7937.5,-3553.68 -7937.5,-7937.5 0,-2073.01 795.4,-3959.82 2096.49,-5373.03l941.26 940.93zm1402.95 1402.95c-704.12,812.27 -1133.41,1869.61 -1133.41,3029.15 0,2557.2 2073.01,4630.21 4630.21,4630.21 2557.2,0 4630.21,-2073.01 4630.21,-4630.21 0,-2557.2 -2073.01,-4630.21 -4630.21,-4630.21 -1159.54,0 -2216.88,429.29 -3029.15,1133.41l-935.3 -935.3c1053.04,-942.91 2439.79,-1521.03 3964.45,-1521.03 3287.78,0 5953.13,2665.35 5953.13,5953.13 0,3287.78 -2665.35,5953.13 -5953.13,5953.13 -3287.78,0 -5953.13,-2665.35 -5953.13,-5953.13 0,-1524.66 578.11,-2911.41 1521.02,-3964.45l935.31 935.3zm1408.58 1408.58c-348.26,448.14 -557.61,1009.05 -557.61,1620.57 0,1461.16 1184.67,2645.83 2645.83,2645.83 1461.16,0 2645.83,-1184.67 2645.83,-2645.83 0,-1461.16 -1184.67,-2645.83 -2645.83,-2645.83 -611.52,0 -1172.43,209.35 -1620.57,557.61l-940.59 -940.59c691.55,-585.4 1584.52,-939.94 2561.16,-939.94 2191.74,0 3968.75,1777.01 3968.75,3968.75 0,2191.74 -1777.01,3968.75 -3968.75,3968.75 -2191.74,0 -3968.75,-1777.01 -3968.75,-3968.75 0,-976.64 354.54,-1869.61 939.93,-2561.17l940.6 940.6zm1854.39 1854.4c129.32,129.32 338.34,129.32 467.65,0 129.31,-129.32 129.32,-338.34 0,-467.65l-1382.45 -1382.45c324.45,-230.85 720,-368.11 1148.63,-368.11 1095.71,0 1984.38,888.67 1984.38,1984.38 0,1095.71 -888.67,1984.38 -1984.38,1984.38 -1095.71,0 -1984.38,-888.67 -1984.38,-1984.38 0,-428.29 137.25,-824.18 368.1,-1148.62l1382.45 1382.45z"/>
  </g>
 </g>
</svg>
