<?xml version="1.0" encoding="UTF-8"?>
<!DOCTYPE svg PUBLIC "-//W3C//DTD SVG 1.1//EN" "http://www.w3.org/Graphics/SVG/1.1/DTD/svg11.dtd">
<!-- Creator: CorelDRAW -->
<svg xmlns="http://www.w3.org/2000/svg" xml:space="preserve" width="210mm" height="212mm" version="1.1" style="shape-rendering:geometricPrecision; text-rendering:geometricPrecision; image-rendering:optimizeQuality; fill-rule:evenodd; clip-rule:evenodd"
viewBox="0 0 21000 21200"
 xmlns:xlink="http://www.w3.org/1999/xlink"
 xmlns:xodm="http://www.corel.com/coreldraw/odm/2003">
 <defs>
  <style type="text/css">
   <![CDATA[
    .fil0 {fill:#231F20;fill-rule:nonzero}
   ]]>
  </style>
 </defs>
 <g id="Capa_x0020_1">
  <metadata id="CorelCorpID_0Corel-Layer"/>
  <g id="_1671326918160">
   <g>
    <path class="fil0" d="M19753.29 1339.7l-8268.23 0 0 -330.73c0,-548.02 -444.17,-992.19 -992.19,-992.19 -548.02,0 -992.19,444.17 -992.19,992.19l0 330.73 -8268.23 0c-731.24,0 -1322.92,591.67 -1322.92,1322.92l0 12567.71c0,731.24 591.67,1322.92 1322.92,1322.92l6577.54 -0.01 -1814.05 3141.93c-274.17,474.6 -111.79,1081.48 363.14,1355.33 474.93,273.85 1081.48,111.46 1355.33,-363.14l2386.87 -4134.11 783.83 -0.01 2386.87 4134.11c274.17,474.93 880.73,637.32 1355.66,363.14 474.93,-273.84 636.98,-880.4 363.14,-1355.33l-1814.05 -3141.93 6576.56 0.01c731.24,0 1322.92,-591.67 1322.92,-1322.92l0 -12567.71c-0.01,-731.23 -591.68,-1322.91 -1322.92,-1322.91zm-9591.15 -330.73c0,-182.89 147.84,-330.73 330.73,-330.73 182.89,0 330.73,147.84 330.73,330.73l0 330.73 -661.46 0 0 -330.73zm-3020.88 19347.66c-91.28,158.42 -293.69,212.66 -451.78,120.72 -158.42,-90.95 -212.66,-293.36 -120.72,-451.45l2004.88 -3472.66 763.66 0 -2196.04 3803.39zm7275.71 -330.73c91.61,158.42 37.37,360.49 -120.72,451.78 -158.09,91.29 -360.49,37.04 -451.78,-121.05l-2196.04 -3803.39 763.66 0 2004.88 3472.66zm5997.78 -4795.57c0,365.13 -296.33,661.46 -661.46,661.46l-18520.84 0c-365.13,0 -661.46,-296.33 -661.46,-661.46l0 -12567.71c0,-365.13 296.33,-661.46 661.46,-661.46l18520.84 0c365.13,0 661.46,296.33 661.46,661.46l0 12567.71z"/>
    <path class="fil0" d="M11485.06 5969.91l-1984.38 0c-182.89,0 -330.73,147.84 -330.73,330.73l0 8268.23 2645.84 0 0 -8268.23c0,-182.89 -147.84,-330.73 -330.73,-330.73zm-330.73 7937.5l-1322.92 0 0 -2645.83 1322.92 0 0 2645.83zm0 -3307.29l-1322.92 0 0 -3968.75 1322.92 0 0 3968.75z"/>
    <path class="fil0" d="M15653.81 3324.08l-1984.38 0c-182.89,0 -330.73,147.84 -330.73,330.73l0 10914.06 2645.84 0 0 -10914.06c0,-182.9 -147.84,-330.73 -330.73,-330.73zm-330.73 10583.33l-1322.92 0 0 -3307.29 1322.92 0 0 3307.29zm0 -3968.75l-1322.92 0 0 -5953.13 1322.92 0.01 0 5953.12z"/>
    <path class="fil0" d="M7316.31 8615.74l-1984.38 0c-182.89,0 -330.73,147.84 -330.73,330.73l0 5622.4 2645.84 0 0 -5622.4c0,-182.89 -147.84,-330.73 -330.73,-330.73zm-330.73 5291.67l-1322.92 0 0 -1984.38 1322.92 0.01 0 1984.37zm0 -2645.83l-1322.92 0 0 -1984.38 1322.92 0 0 1984.38z"/>
   </g>
  </g>
 </g>
</svg>
