<svg id="Layer_1" data-name="Layer 1" xmlns="http://www.w3.org/2000/svg" viewBox="0 0 37.75 37.68"><defs><style>.cls-1{fill:#003a55;}</style></defs><title>instagram</title><path class="cls-1" d="M19.68,1.15A18.84,18.84,0,1,1,.8,19.94,18.77,18.77,0,0,1,19.68,1.15ZM8,22.52c0,.9.08,1.75.12,2.61a6.65,6.65,0,0,0,1.95,4.49,6.5,6.5,0,0,0,4.48,1.91c.82,0,1.72.08,2.57.08h2.58c.82,0,1.68.07,2.57,0s1.76,0,2.62-.08a6.6,6.6,0,0,0,6.35-6.4c.08-1.68.12-3.43.12-5.19s-.08-3.51-.12-5.18a6.12,6.12,0,0,0-2-4.49,6,6,0,0,0-4.4-1.87c-.94,0-1.8-.08-2.7-.08H17.07c-.9,0-1.76.08-2.62.08a6.24,6.24,0,0,0-4.36,1.83,6.55,6.55,0,0,0-1.95,4.45c0,.78,0,1.68-.12,2.57S8,19,8,19.87,8,21.62,8,22.52Zm2.22-7.76a5,5,0,0,1,1.29-3,4.89,4.89,0,0,1,3-1.24c.74,0,1.6,0,2.42,0s1.75,0,2.65,0,1.76,0,2.61,0,1.72,0,2.5,0a4.46,4.46,0,0,1,4.41,4.4c.08,1.52.11,3.2.11,5.07s-.07,3.51-.11,5.15a4,4,0,0,1-1.29,3,4.77,4.77,0,0,1-3.12,1.29,24.13,24.13,0,0,1-2.46.12H17.14a25.11,25.11,0,0,1-2.53-.12,4.8,4.8,0,0,1-3-1.29A4.47,4.47,0,0,1,10.24,25c-.12-1.44-.15-3.23-.15-5.11S10.12,16.32,10.24,14.76Zm5.27,9.44A5.43,5.43,0,0,0,19.68,26a5.55,5.55,0,0,0,4.17-1.79,5.83,5.83,0,0,0,0-8.43,5.75,5.75,0,0,0-8.34,0A5.89,5.89,0,0,0,13.71,20,6.09,6.09,0,0,0,15.51,24.2Zm1.44-7a3.86,3.86,0,0,1,5.46,0A3.86,3.86,0,0,1,23.5,20a3.49,3.49,0,0,1-1.09,2.65,3.5,3.5,0,0,1-2.73,1.17A3.5,3.5,0,0,1,17,22.67,3.49,3.49,0,0,1,15.86,20,3.86,3.86,0,0,1,17,17.21Zm8.74-1.87c1,0,1.4-.47,1.4-1.36s-.43-1.37-1.4-1.37S24.32,13,24.32,14A1.22,1.22,0,0,0,25.69,15.34Z" transform="translate(-0.8 -1.14)"/></svg>