<?xml version="1.0" encoding="utf-8"?>
<!-- Generator: Adobe Illustrator 21.0.0, SVG Export Plug-In . SVG Version: 6.00 Build 0)  -->
<svg version="1.1" id="Layer_1" xmlns="http://www.w3.org/2000/svg" xmlns:xlink="http://www.w3.org/1999/xlink" x="0px" y="0px"
	 viewBox="0 0 114.3 114.3" style="enable-background:new 0 0 114.3 114.3;" xml:space="preserve">
<style type="text/css">
	.st0{fill:#818386;}
	.st1{fill-rule:evenodd;clip-rule:evenodd;fill:#818386;}
	.st2{fill:#FFFFFF;}
</style>
<g>
	<path class="st1" d="M93.8,0H20.5C9.2,0,0,9.2,0,20.5v73.3c0,11.3,9.2,20.5,20.5,20.5h73.3c11.3,0,20.5-9.2,20.5-20.5V20.5
		C114.3,9.2,105.1,0,93.8,0z M57.2,86.8c-16.3,0-29.6-13.2-29.6-29.6c0-16.3,13.2-29.6,29.6-29.6s29.6,13.2,29.6,29.6
		C86.8,73.5,73.5,86.8,57.2,86.8z M98.4,23.1c-3.9,0-7.1-3.2-7.1-7.1c0-3.9,3.2-7.1,7.1-7.1c3.9,0,7.1,3.2,7.1,7.1
		C105.5,19.9,102.3,23.1,98.4,23.1z"/>
</g>
</svg>
