<?xml version="1.0" encoding="utf-8"?>
<!-- Generator: Adobe Illustrator 21.0.0, SVG Export Plug-In . SVG Version: 6.00 Build 0)  -->
<svg version="1.1" id="Layer_1" xmlns="http://www.w3.org/2000/svg" xmlns:xlink="http://www.w3.org/1999/xlink" x="0px" y="0px"
	 viewBox="0 0 115.7 115.7" style="enable-background:new 0 0 115.7 115.7;" xml:space="preserve">
<style type="text/css">
	.st0{fill:#818386;}
	.st1{fill-rule:evenodd;clip-rule:evenodd;fill:#818386;}
	.st2{fill:#FFFFFF;}
</style>
<g>
	<path id="XMLID_2_" class="st0" d="M94.6,0H21.1C9.5,0,0,9.5,0,21.1v73.6c0,11.6,9.5,21.1,21.1,21.1h73.6
		c11.6,0,21.1-9.5,21.1-21.1V21.1C115.7,9.5,106.2,0,94.6,0z"/>
</g>
<path class="st2" d="M91.6,33.6c0,0,7.2-4.6,7.2-9.8c-0.9,1.4-6.5,3.9-11.2,4.6c-3.2-3.5-7.8-5.7-12.9-5.7
	c-9.7,0-17.5,7.8-17.5,17.5c0,1.5,0.2,3,0.6,4.5c-24-0.8-37.3-18.9-37.3-18.9s-7.2,13.4,5,23.8c-2.4,0.6-7.9-2.1-7.9-2.1
	s-0.1,13.2,13.8,17.7c-2.3,1.2-7.1,0.3-7.1,0.3s3.8,11.6,16,12.4c-2.2,4.1-17.1,8.6-25.5,7.5c24,16.9,76.9,8.2,78.1-45.4
	c3.9-2.1,7-6.9,8.1-8.8C95.9,33.6,91.6,33.6,91.6,33.6z"/>
</svg>
