<?xml version="1.0" encoding="utf-8"?>
<!-- Generator: Adobe Illustrator 21.0.0, SVG Export Plug-In . SVG Version: 6.00 Build 0)  -->
<svg version="1.1" id="Layer_1" xmlns="http://www.w3.org/2000/svg" xmlns:xlink="http://www.w3.org/1999/xlink" x="0px" y="0px"
	 viewBox="0 0 115.7 115.7" style="enable-background:new 0 0 115.7 115.7;" xml:space="preserve">
<style type="text/css">
	.st0{fill:#818386;}
	.st1{fill-rule:evenodd;clip-rule:evenodd;fill:#818386;}
	.st2{fill:#FFFFFF;}
</style>
<g>
	<path id="XMLID_31_" class="st0" d="M94.6,0H21.1C9.5,0,0,9.5,0,21.1v73.6c0,11.6,9.5,21.1,21.1,21.1h73.6
		c11.6,0,21.1-9.5,21.1-21.1V21.1C115.7,9.5,106.2,0,94.6,0z M95.8,57.8H83.4v44.9H64.8V57.8h-9.3V42.4h9.3v-9.3
		C64.8,20.5,70.1,13,85,13h12.4v15.5h-7.7c-5.8,0-6.2,2.2-6.2,6.2l0,7.7h14L95.8,57.8z"/>
</g>
</svg>
