<?xml version="1.0" encoding="utf-8"?>
<!-- Generator: Adobe Illustrator 21.0.0, SVG Export Plug-In . SVG Version: 6.00 Build 0)  -->
<svg version="1.1" id="Layer_1" xmlns="http://www.w3.org/2000/svg" xmlns:xlink="http://www.w3.org/1999/xlink" x="0px" y="0px"
	 viewBox="0 0 115.7 115.7" style="enable-background:new 0 0 115.7 115.7;" xml:space="preserve">
<style type="text/css">
	.st0{fill:#818386;}
	.st1{fill-rule:evenodd;clip-rule:evenodd;fill:#818386;}
	.st2{fill:#FFFFFF;}
</style>
<g>
	<path class="st0" d="M94.6,0H21.1C9.5,0,0,9.5,0,21.1v73.6c0,11.6,9.5,21.1,21.1,21.1h73.6c11.6,0,21.1-9.5,21.1-21.1V21.1
		C115.7,9.5,106.2,0,94.6,0z M100.6,31L57.5,68.3L14.3,31H100.6z M14.2,38.2l23.2,20.9L14.2,80V38.2z M14.3,87l28.3-24.5l14.8,12.8
		l14.8-12.8L100.6,87H14.3z M100.6,80L77.4,59.1l23.2-20.9V80z"/>
</g>
</svg>
