<?xml version="1.0" encoding="utf-8"?>
<!-- Generator: Adobe Illustrator 21.0.0, SVG Export Plug-In . SVG Version: 6.00 Build 0)  -->
<svg version="1.1" id="Layer_1" xmlns="http://www.w3.org/2000/svg" xmlns:xlink="http://www.w3.org/1999/xlink" x="0px" y="0px"
	 viewBox="0 0 115.7 115.7" style="enable-background:new 0 0 115.7 115.7;" xml:space="preserve">
<style type="text/css">
	.st0{fill:#818386;}
	.st1{fill-rule:evenodd;clip-rule:evenodd;fill:#818386;}
	.st2{fill:#FFFFFF;}
</style>
<g>
	<path id="XMLID_1_" class="st0" d="M94.6,0H21.1C9.5,0,0,9.5,0,21.1v73.6c0,11.6,9.5,21.1,21.1,21.1h73.6
		c11.6,0,21.1-9.5,21.1-21.1V21.1C115.7,9.5,106.2,0,94.6,0z"/>
</g>
<path class="st2" d="M99.1,41.3c-0.5-6.4-5.5-11.5-11.9-12c-6.9-0.6-16.8-1.2-29.4-1.2c-12.5,0-22.4,0.6-29.2,1.2
	c-6.4,0.6-11.4,5.6-11.9,12c-0.4,5.1-0.8,11.3-0.8,17.4c0,5.7,0.3,11.2,0.7,15.8c0.5,6.4,5.5,11.4,11.9,12
	c6.7,0.6,16.4,1.1,29.3,1.1c12.9,0,22.8-0.6,29.5-1.1c6.4-0.6,11.4-5.6,11.9-12c0.4-4.6,0.7-10.2,0.7-15.8
	C99.8,52.7,99.5,46.4,99.1,41.3z M48.9,70.6V44.9l22.6,12.6L48.9,70.6z"/>
</svg>
