<svg id="Layer_1" data-name="Layer 1" xmlns="http://www.w3.org/2000/svg" viewBox="0 0 37.754 37.715"><defs><style>.cls-1{fill:#003a55;}</style></defs><title>twitter</title><path class="cls-1" d="M19.679,1.145A18.857,18.857,0,1,1,.8,19.982,18.76,18.76,0,0,1,19.679,1.145ZM32.005,13.7a10.341,10.341,0,0,1-2.77.7A4.318,4.318,0,0,0,31.3,11.87c-.82.585-2.185,2.028-3,1.171a4.369,4.369,0,0,0-3.354-1.522,4.72,4.72,0,0,0-3.315,1.326A4.564,4.564,0,0,0,20.264,16.2a3.213,3.213,0,0,0,.156,1.014,13.072,13.072,0,0,1-5.46-1.442,13.6,13.6,0,0,1-4.29-3.354,4.618,4.618,0,0,0-.663,2.261,4.524,4.524,0,0,0,2.145,3.94,4.667,4.667,0,0,1-2.145-.585v.077a4.664,4.664,0,0,0,1.092,3,4.1,4.1,0,0,0,2.731,1.56,12.966,12.966,0,0,1-1.288.156,3.419,3.419,0,0,1-.858-.039,5.732,5.732,0,0,0,1.6,2.3,4.477,4.477,0,0,0,2.768.936,10.836,10.836,0,0,1-5.811,1.99,5.848,5.848,0,0,1-1.17,0,13.274,13.274,0,0,0,7.216,2.027c4.329,0,7.567-1.4,9.867-4.329a14.314,14.314,0,0,0,3.471-9.009v-.546A14.069,14.069,0,0,0,32.005,13.7Z" transform="translate(-0.803 -1.144)"/></svg>