<svg id="Layer_1" data-name="Layer 1" xmlns="http://www.w3.org/2000/svg" viewBox="0 0 37.754 37.715"><defs><style>.cls-1{fill:#003a55;}</style></defs><title>youtube</title><path class="cls-1" d="M.8,19.982A18.877,18.877,0,1,1,19.679,38.859,18.833,18.833,0,0,1,.8,19.982Zm27.028,7.879a3.915,3.915,0,0,0,2.379-1.014,4.5,4.5,0,0,0,.858-2.262,29.636,29.636,0,0,0,.274-3.745V19.164a30.87,30.87,0,0,0-.274-3.823,4.3,4.3,0,0,0-.858-2.223A3.153,3.153,0,0,0,27.831,12.1c-3.159-.195-8-.195-8-.195h-.078s-4.8,0-8.034.195a3.184,3.184,0,0,0-2.34,1.014,4.3,4.3,0,0,0-.858,2.223,30.981,30.981,0,0,0-.273,3.823V20.84a29.742,29.742,0,0,0,.273,3.745,4.5,4.5,0,0,0,.858,2.262,4.359,4.359,0,0,0,2.575,1.014c1.872.2,7.877.234,7.877.234S24.672,28.1,27.831,27.861ZM15.974,14.951,25.1,19.709l-9.128,4.759Z" transform="translate(-0.803 -1.144)"/></svg>