<?xml version="1.0" encoding="UTF-8"?>
<!DOCTYPE svg PUBLIC "-//W3C//DTD SVG 1.1//EN" "http://www.w3.org/Graphics/SVG/1.1/DTD/svg11.dtd">
<!-- Creator: CorelDRAW -->
<svg xmlns="http://www.w3.org/2000/svg" xml:space="preserve" width="100mm" height="100mm" version="1.1" style="shape-rendering:geometricPrecision; text-rendering:geometricPrecision; image-rendering:optimizeQuality; fill-rule:evenodd; clip-rule:evenodd"
viewBox="0 0 10000 10000"
 xmlns:xlink="http://www.w3.org/1999/xlink"
 xmlns:xodm="http://www.corel.com/coreldraw/odm/2003">
 <defs>
  <style type="text/css">
   <![CDATA[
    .fil0 {fill:#262626;fill-rule:nonzero}
   ]]>
  </style>
 </defs>
 <g id="Capa_x0020_1">
  <metadata id="CorelCorpID_0Corel-Layer"/>
  <path class="fil0" d="M5006.73 6.8c2754.78,5.51 4986.47,2242.02 4986.47,4996.9 0,2759.39 -2237.71,4997.1 -4997,4997.1 -2759.29,0 -4997,-2237.71 -4997,-4997.1 0,-4.21 0,-9.02 0,-13.33 0.1,-1.01 0.1,-4.01 0.1,-5.22 0,-2748.96 2229.39,-4978.35 4978.35,-4978.35 9.73,0 19.45,0 29.08,0zm-3097.93 5668.05c0,238.69 21.25,464.14 31.88,692.31 14.63,447.8 199.99,874.15 517.17,1190.73 315.48,316.48 741.73,498.32 1188.33,506.74 217.53,0 456.22,21.26 681.67,21.26l684.19 0c217.53,0 445.6,18.54 681.68,0 236.08,-18.55 466.85,0 694.91,-21.26 920.36,-34.58 1657.08,-777.31 1684.14,-1697.77 21.26,-445.6 31.88,-909.74 31.88,-1376.59 0,-466.85 -21.25,-930.99 -31.88,-1373.89 -2.4,-453.41 -194.98,-885.47 -530.3,-1190.63 -300.44,-316.68 -717.97,-496.02 -1154.54,-496.02 -4.11,0 -8.53,0 -12.64,0 -249.31,0 -477.47,-21.25 -716.16,-21.25l-1344.61 0.1c-238.69,0 -466.85,21.25 -694.91,21.25 -434.07,3.51 -849.49,178.14 -1156.24,485.3 -317.29,312.37 -502.74,735.31 -517.38,1180.3 0,206.91 0,445.6 -31.88,681.68 -31.87,236.08 -5.31,464.14 -5.31,694.91 0,230.77 0,464.14 0,702.83zm588.85 -2058.16c21.85,-295.93 142.45,-576.32 342.24,-795.76 219.94,-196.89 500.84,-313.17 795.76,-328.81 196.28,0 424.35,0 641.88,0 217.54,0 464.14,0 702.83,0 238.69,0 466.85,0 692.31,0 225.45,0 456.22,0 663.13,0 641.48,7.12 1160.85,525.09 1169.38,1166.97 21.25,403.19 29.17,848.79 29.17,1344.71 0,495.92 -18.55,930.99 -29.17,1365.96 0,4.81 0.1,10.13 0.1,15.14 0,296.43 -124.21,579.63 -342.25,780.32 -224.65,211.22 -519.17,333.02 -827.53,342.34 -210.92,20.85 -425.05,31.78 -637.57,31.78 -4.71,0 -10.13,0 -14.84,0l-1350.02 0.2c-6.42,-0.2 -13.74,-0.2 -20.25,-0.2 -217.14,0 -434.97,-10.52 -650.5,-31.68 -297.03,-17.54 -578.83,-138.94 -795.86,-342.44 -226.86,-218.04 -357.78,-517.97 -363.5,-832.65 -31.88,-381.94 -39.8,-856.71 -39.8,-1355.34 0,-498.62 7.92,-946.83 39.8,-1360.54l-5.31 0zm1397.74 2503.76c273.27,303.95 662.93,477.87 1071.64,477.87 13.23,0 26.76,-0.2 39.6,-0.5 7.31,-0.1 15.63,0.1 23.15,0.1 411.32,0 804.38,-172.52 1082.97,-474.97 305.05,-291.51 477.97,-695.81 477.97,-1117.95 0,-421.94 -172.92,-826.23 -477.97,-1117.75 -287.91,-303.24 -687.79,-475.07 -1106.02,-475.07 -418.03,0 -817.92,171.83 -1105.83,474.97 -303.94,293.22 -476.17,697.02 -477.47,1119.16 8.62,419.03 179.94,818.71 477.47,1113.94l-5.51 0.2zm381.94 -1856.57c192.07,-192.07 452.82,-300.04 724.18,-300.04 271.37,0 532.11,107.97 723.99,299.94 188.76,191.57 294.72,449.71 294.72,718.67 0,7.92 -0.1,16.14 -0.2,23.76 0.2,10.02 0.4,20.45 0.4,30.47 0,254.43 -104.86,497.83 -289.61,672.56 -176.04,197.58 -428.46,310.76 -693.21,310.76 -10.22,0 -20.85,-0.3 -30.97,-0.6 -7.12,0.3 -14.94,0.4 -22.46,0.4 -262.04,0 -512.16,-111.07 -687.99,-305.35 -192.78,-175.33 -302.75,-423.94 -302.75,-684.59 0,-7.82 0.2,-15.83 0.3,-23.45 0,-4.31 -0.1,-9.03 -0.1,-13.44 0,-272.77 108.97,-534.41 302.45,-726.48l-18.75 -2.61zm2318.21 -496.02c265.25,0 371.31,-124.71 371.31,-360.69 0,-235.98 -114.08,-363.39 -371.31,-363.39 -257.24,0 -358.08,106.06 -358.08,371.31 -1.31,11.33 -1.91,22.96 -1.91,34.48 0,178.64 144.96,323.6 323.6,323.6 13.93,0 27.87,-0.9 41.6,-2.71l-5.21 -2.6z"/>
 </g>
</svg>
