<?xml version="1.0" encoding="UTF-8"?>
<!DOCTYPE svg PUBLIC "-//W3C//DTD SVG 1.1//EN" "http://www.w3.org/Graphics/SVG/1.1/DTD/svg11.dtd">
<!-- Creator: CorelDRAW -->
<svg xmlns="http://www.w3.org/2000/svg" xml:space="preserve" width="100mm" height="100mm" version="1.1" style="shape-rendering:geometricPrecision; text-rendering:geometricPrecision; image-rendering:optimizeQuality; fill-rule:evenodd; clip-rule:evenodd"
viewBox="0 0 10000 10000"
 xmlns:xlink="http://www.w3.org/1999/xlink"
 xmlns:xodm="http://www.corel.com/coreldraw/odm/2003">
 <defs>
  <style type="text/css">
   <![CDATA[
    .str0 {stroke:#262626;stroke-width:7.62;stroke-miterlimit:22.9256}
    .fil0 {fill:#262626;fill-rule:nonzero}
   ]]>
  </style>
 </defs>
 <g id="Capa_x0020_1">
  <metadata id="CorelCorpID_0Corel-Layer"/>
  <path class="fil0 str0" d="M5001.95 14.65c2753.5,3.1 4983.4,2236.1 4983.4,4989.1 0,2755 -2234.2,4989.2 -4989.1,4989.2 -2754.9,0 -4989.1,-2234.2 -4989.1,-4989.2 0,-1.1 0,-4.2 0,-5.4 -0.1,-6.3 -0.1,-13.5 -0.1,-20.2 0,-2740.8 2222.7,-4963.5 4963.5,-4963.5 10.3,0 21.2,0 31.5,0l-0.1 0zm3261.3 3321.8c-234.1,95.4 -481.6,157.8 -732.8,185.2 262.6,-142.8 458.9,-383.3 546.3,-669.2 -217,154.8 -578.1,536.6 -793.8,309.8 -219.5,-255.6 -539.9,-402.8 -876.9,-402.8 -3.4,0 -7.2,0 -10.6,0 -3,0.1 -6.1,0.1 -9.1,0.1 -323.8,0 -635,125.9 -867.8,350.8 -231.5,227 -362.1,537.9 -362.1,862.1 0,8.4 0.1,17.4 0.3,25.7 0,1.9 0,4.3 0,6.4 0,88.8 14,177.3 41.3,261.7 -503,-20.3 -997,-150.8 -1444.6,-381.3 -433.9,-216.5 -820.9,-518.7 -1135,-887.7 -109,180.9 -169.7,387.4 -175.4,598.4 -0.1,7.7 -0.2,16.1 -0.2,24.1 0,414.9 214.8,800.2 567.7,1018.3 -198.6,-5 -393.5,-58.2 -567.3,-154.7l0 20.4c-0.1,-0.1 -0.1,0.2 -0.1,0.2 0,290.1 102.4,571.1 289,793.3 176.2,228 436.5,376.7 722.5,412.7 -112.9,19.2 -226.8,33.5 -340.7,41.4 -24.2,1.7 -48.7,2.8 -72.9,2.8 -51.7,0 -103.4,-4.5 -154.3,-13.3 88.6,234.6 234.1,444 423.3,608.6 207.5,160.3 462.6,247.6 724.9,247.6 2.5,0 5.1,0 7.5,0 -450.9,319.8 -985,503.2 -1537.3,526.6 -51.4,5.1 -103.3,7.7 -154.9,7.7 -51.6,0 -103.5,-2.6 -154.7,-7.7 558.8,350.5 1205.8,536.6 1865.7,536.6 14.1,0 29.6,-0.4 43.3,-0.4 1145.4,0 2002.1,-370.4 2610.6,-1145.4 572.6,-663.9 897.7,-1506.8 918.5,-2383.2l0 -144.5c235.3,-190.1 447.5,-409.1 629.7,-650.5l-0.1 0.2z"/>
 </g>
</svg>
