<?xml version="1.0" encoding="UTF-8"?>
<!DOCTYPE svg PUBLIC "-//W3C//DTD SVG 1.1//EN" "http://www.w3.org/Graphics/SVG/1.1/DTD/svg11.dtd">
<!-- Creator: CorelDRAW -->
<svg xmlns="http://www.w3.org/2000/svg" xml:space="preserve" width="50mm" height="50mm" version="1.1" style="shape-rendering:geometricPrecision; text-rendering:geometricPrecision; image-rendering:optimizeQuality; fill-rule:evenodd; clip-rule:evenodd"
viewBox="0 0 5000 5000"
 xmlns:xlink="http://www.w3.org/1999/xlink"
 xmlns:xodm="http://www.corel.com/coreldraw/odm/2003">
 <defs>
  <style type="text/css">
   <![CDATA[
    .fil0 {fill:#FEFEFE;fill-rule:nonzero}
   ]]>
  </style>
 </defs>
 <g id="Capa_x0020_1">
  <metadata id="CorelCorpID_0Corel-Layer"/>
  <path class="fil0" d="M1748.6 5006.13c520.8,0 903.85,0 1149.16,0l-0.13 -2210.57 794.04 0 117.76 -972.39 -911.8 0 0 -445.79c-7.43,-99.71 5.75,-199.87 38.72,-294.33 81.38,-94.78 203.95,-143.77 328.03,-131.3l504.67 0 0 -945.49c-298.19,0 -596.38,-0.13 -894.57,-0.13 -180.83,0 -360.2,33.95 -528.57,99.51 -393.65,149.74 -597.25,531.63 -597.25,1133.89l-0.06 583.64 -570.29 0 0 972.39 570.29 0 0 2210.57z"/>
 </g>
</svg>
