<?xml version="1.0" encoding="UTF-8"?>
<!DOCTYPE svg PUBLIC "-//W3C//DTD SVG 1.1//EN" "http://www.w3.org/Graphics/SVG/1.1/DTD/svg11.dtd">
<!-- Creator: CorelDRAW -->
<svg xmlns="http://www.w3.org/2000/svg" xml:space="preserve" width="50mm" height="50mm" version="1.1" style="shape-rendering:geometricPrecision; text-rendering:geometricPrecision; image-rendering:optimizeQuality; fill-rule:evenodd; clip-rule:evenodd"
viewBox="0 0 5000 5000"
 xmlns:xlink="http://www.w3.org/1999/xlink"
 xmlns:xodm="http://www.corel.com/coreldraw/odm/2003">
 <defs>
  <style type="text/css">
   <![CDATA[
    .fil0 {fill:black;fill-rule:nonzero}
   ]]>
  </style>
 </defs>
 <g id="Capa_x0020_1">
  <metadata id="CorelCorpID_0Corel-Layer"/>
  <path class="fil0" d="M4993.79 962.41c-192.91,78.61 -396.85,130.03 -603.85,152.61 216.39,-117.68 378.15,-315.85 450.17,-551.44 -178.82,127.56 -476.37,442.17 -654.11,255.28 -180.87,-210.62 -444.89,-331.92 -722.59,-331.92 -2.8,0 -5.93,0 -8.73,0 -2.47,0.09 -5.03,0.09 -7.5,0.09 -266.82,0 -523.25,103.74 -715.09,289.06 -190.76,187.06 -298.37,443.25 -298.37,710.39 0,6.93 0.08,14.34 0.24,21.18 0,1.57 0,3.55 0,5.28 0,73.17 11.54,146.09 34.04,215.64 -414.49,-16.73 -821.55,-124.26 -1190.39,-314.2 -357.54,-178.4 -676.44,-427.42 -935.26,-731.48 -89.82,149.06 -139.84,319.22 -144.53,493.09 -0.09,6.35 -0.17,13.27 -0.17,19.86 0,341.89 177,659.38 467.8,839.1 -163.65,-4.12 -324.25,-47.95 -467.47,-127.47l0 16.81c-0.08,-0.08 -0.08,0.16 -0.08,0.16 0,239.05 84.38,470.6 238.14,653.7 145.19,187.88 359.69,310.41 595.36,340.07 -93.04,15.82 -186.89,27.61 -280.75,34.12 -19.94,1.4 -40.13,2.31 -60.07,2.31 -42.6,0 -85.2,-3.71 -127.15,-10.96 73.01,193.31 192.91,365.86 348.81,501.5 170.99,132.09 381.19,204.02 597.34,204.02 2.06,0 4.2,0 6.18,0 -371.56,263.53 -811.67,414.65 -1266.77,433.93 -42.36,4.21 -85.12,6.35 -127.64,6.35 -42.52,0 -85.29,-2.14 -127.48,-6.35 460.46,288.82 993.61,442.18 1537.38,442.18 11.62,0 24.39,-0.33 35.68,-0.33 943.83,0 1649.77,-305.22 2151.19,-943.84 471.83,-547.07 739.72,-1241.64 756.86,-1963.81l0 -119.07c193.9,-156.65 368.75,-337.11 518.89,-536.03l-0.08 0.17z"/>
 </g>
</svg>
