<?xml version="1.0" encoding="UTF-8"?>
<!DOCTYPE svg PUBLIC "-//W3C//DTD SVG 1.1//EN" "http://www.w3.org/Graphics/SVG/1.1/DTD/svg11.dtd">
<!-- Creator: CorelDRAW -->
<svg xmlns="http://www.w3.org/2000/svg" xml:space="preserve" width="100mm" height="100mm" version="1.1" style="shape-rendering:geometricPrecision; text-rendering:geometricPrecision; image-rendering:optimizeQuality; fill-rule:evenodd; clip-rule:evenodd"
viewBox="0 0 10000 10000"
 xmlns:xlink="http://www.w3.org/1999/xlink"
 xmlns:xodm="http://www.corel.com/coreldraw/odm/2003">
 <defs>
  <style type="text/css">
   <![CDATA[
    .str0 {stroke:#262626;stroke-width:20;stroke-miterlimit:22.9256}
    .fil1 {fill:#FEFEFE;fill-rule:nonzero}
    .fil0 {fill:#262626;fill-rule:nonzero}
   ]]>
  </style>
 </defs>
 <g id="Capa_x0020_1">
  <metadata id="CorelCorpID_0Corel-Layer"/>
  <g id="_2879118151616">
   <path class="fil0 str0" d="M1.75 5003.7c0.2,-2757.7 2236.8,-4994.3 4994.5,-4994.3 2757.8,0 4994.4,2236.6 4994.4,4994.3 0,2757.8 -2236,4994.4 -4993.8,4994.4 -3.7,0.1 -8.5,0.1 -12.2,0.1 -2751.4,0 -4982.8,-2231.4 -4982.8,-4982.9 0,-3.7 0,-7.8 0,-11.5l-0.1 -0.1z"/>
   <path class="fil1" d="M7155.04 3105.5c-44.64,-22.96 -88.52,-48.78 -130.56,-76.06 -122.65,-80.85 -235.64,-177.03 -335.4,-284.86 -250.16,-286.23 -343.59,-576.59 -378,-779.9l1.3 -0.07c-28.74,-168.75 -16.85,-277.93 -15.06,-277.93l-1139.38 0 0 4405.73c0,59.15 0,117.61 -2.49,175.38 0,7.19 -0.69,13.82 -1.11,21.56 0,3.18 0,6.5 -0.69,9.82 0,0.82 0,1.65 0,2.48 -24.38,320.96 -206.98,608.91 -486.79,767.89 -143.27,81.42 -305.32,124.37 -470.17,124.37 -0.35,0 -0.93,0 -1.27,0 -530.86,0 -961.1,-432.86 -961.1,-967.44 0,-534.58 430.24,-967.44 961.1,-967.44 0.22,0 0.69,0 0.92,0 100.1,0 199.96,15.92 295.06,46.85l1.38 -1160.11c-89.78,-11.49 -180.74,-17.43 -271.18,-17.43 -497.15,0 -978.8,175.19 -1359.67,494.56 -195.96,170.34 -361.67,374.53 -487.79,601.66 -48.1,82.92 -229.56,416.13 -251.54,956.93 -13.82,306.96 78.36,624.97 122.32,756.4l0 2.77c27.64,77.39 134.75,341.51 309.3,564.16 140.45,178.26 307.23,335.42 493.51,465.45l0 -2.76 2.76 2.76c551.5,374.89 1163.07,350.3 1163.07,350.3 105.87,-4.29 460.51,0 863.25,-190.87 446.69,-211.59 700.99,-526.83 700.99,-526.83 162.38,-188.16 291.78,-403.39 381.89,-634.93 103.1,-271.02 137.51,-596.08 137.51,-725.99l0.12 -2337.2c13.82,8.29 197.92,130.05 197.92,130.05 0,0 265.22,170 679.01,280.7 296.87,78.77 696.85,95.36 696.85,95.36l0 -1131.08c-140.15,15.2 -424.72,-29.02 -716.06,-174.28z"/>
  </g>
 </g>
</svg>
