<?xml version="1.0" encoding="UTF-8"?>
<!DOCTYPE svg PUBLIC "-//W3C//DTD SVG 1.1//EN" "http://www.w3.org/Graphics/SVG/1.1/DTD/svg11.dtd">
<!-- Creator: CorelDRAW -->
<svg xmlns="http://www.w3.org/2000/svg" xml:space="preserve" width="100mm" height="100mm" version="1.1" style="shape-rendering:geometricPrecision; text-rendering:geometricPrecision; image-rendering:optimizeQuality; fill-rule:evenodd; clip-rule:evenodd"
viewBox="0 0 10000 10000"
 xmlns:xlink="http://www.w3.org/1999/xlink"
 xmlns:xodm="http://www.corel.com/coreldraw/odm/2003">
 <defs>
  <style type="text/css">
   <![CDATA[
    .fil0 {fill:#003A55;fill-rule:nonzero}
   ]]>
  </style>
 </defs>
 <g id="Capa_x0020_1">
  <metadata id="CorelCorpID_0Corel-Layer"/>
  <path class="fil0" d="M4981.75 20.45c8.5,-0.1 17.7,-0.1 26.2,-0.1 2756.9,0 4992.7,2235.8 4992.7,4992.5 0,2591.1 -1982.2,4751.9 -4563.6,4974.4l-0.2 -3476.6 1248.8 0 185.2 -1529.3 -1434 0 0 -701.1c-2.1,-28.2 -3.2,-56.9 -3.2,-85.3 0,-128.5 21.8,-256.4 64.1,-377.6 114.1,-132.9 280.5,-209.5 455.7,-209.5 20.1,0 40.3,1 60.2,3l793.7 0 0 -1487 -1370.5 0c-11.8,0.1 -24.4,-0.2 -36.4,-0.2 -284.4,0 -566.5,53.4 -831.3,156.5 -619.1,235.5 -939.3,836.1 -939.3,1783.3l-0.1 917.9 -896.9 0 0 1529.3 896.9 0 0 3312.6c-2151.3,-606.9 -3638.1,-2571.9 -3638.1,-4807.6 0,-2756.3 2233.9,-4992.7 4990.2,-4995.1l-0.1 -0.1z"/>
 </g>
</svg>
