<?xml version="1.0" encoding="UTF-8"?>
<!DOCTYPE svg PUBLIC "-//W3C//DTD SVG 1.1//EN" "http://www.w3.org/Graphics/SVG/1.1/DTD/svg11.dtd">
<!-- Creator: CorelDRAW -->
<svg xmlns="http://www.w3.org/2000/svg" xml:space="preserve" width="100mm" height="100mm" version="1.1" style="shape-rendering:geometricPrecision; text-rendering:geometricPrecision; image-rendering:optimizeQuality; fill-rule:evenodd; clip-rule:evenodd"
viewBox="0 0 10000 10000"
 xmlns:xlink="http://www.w3.org/1999/xlink"
 xmlns:xodm="http://www.corel.com/coreldraw/odm/2003">
 <defs>
  <style type="text/css">
   <![CDATA[
    .fil0 {fill:#003A55;fill-rule:nonzero}
   ]]>
  </style>
 </defs>
 <g id="Capa_x0020_1">
  <metadata id="CorelCorpID_0Corel-Layer"/>
  <path class="fil0" d="M1.65 5003.75c0.2,-2757.8 2236.8,-4994.4 4994.6,-4994.4 2757.8,0 4994.4,2236.6 4994.4,4994.4 0,2757.8 -2236,4994.4 -4993.8,4994.4 -3.8,0.1 -8.6,0.1 -12.3,0.1 -2751.4,0 -4982.8,-2231.4 -4982.8,-4982.9 0,-3.7 0,-7.8 0,-11.5l-0.1 -0.1zm7151.1 2084.7c233.9,-15.6 456.1,-110.4 629.3,-268.5 128.9,-174.8 207.7,-382.2 227.2,-598.5 45,-327.3 69.9,-659.4 72.8,-990.7l-0.3 -443.4c-2.7,-337.7 -27.6,-677.7 -72.5,-1011.8 -18.8,-213.2 -97.6,-417.1 -227.1,-587.8 -157.8,-171.6 -380.7,-269.4 -614,-269.4 -4.8,0 -10,0.1 -14.7,0.1 -835.8,-51.6 -2116.7,-51.6 -2116.7,-51.6l-20.5 -0.1c0,0 -1270,0 -2125.7,51.6 -0.5,0.1 -1.6,0.1 -2.4,0.1 -233.8,0 -457.1,97.3 -616.5,268.3 -129.5,170.7 -208.3,374.6 -227.1,588.1 -43.6,333.9 -69.6,673.2 -72.6,1011.3l0.3 444.7c2.7,331.6 28.6,663.1 72.8,990.7 19,216.2 97.8,423.6 226.5,598.5 192,160.8 431.3,255.3 681.4,268.3 495.3,52.9 2084.1,61.9 2084.1,61.9 0,0 1280.7,1.4 2116.5,-61.8l-0.8 0zm-3136.3 -3415.8l2414.5 1258.9 -2415.1 1259.2 0.6 -2518.1z"/>
 </g>
</svg>
