<?xml version="1.0" encoding="UTF-8"?>
<!DOCTYPE svg PUBLIC "-//W3C//DTD SVG 1.1//EN" "http://www.w3.org/Graphics/SVG/1.1/DTD/svg11.dtd">
<!-- Creator: CorelDRAW -->
<svg xmlns="http://www.w3.org/2000/svg" xml:space="preserve" width="50mm" height="50mm" version="1.1" style="shape-rendering:geometricPrecision; text-rendering:geometricPrecision; image-rendering:optimizeQuality; fill-rule:evenodd; clip-rule:evenodd"
viewBox="0 0 5000 5000"
 xmlns:xlink="http://www.w3.org/1999/xlink"
 xmlns:xodm="http://www.corel.com/coreldraw/odm/2003">
 <defs>
  <style type="text/css">
   <![CDATA[
    .fil1 {fill:#FEFEFE}
    .fil0 {fill:#FEFEFE;fill-rule:nonzero}
   ]]>
  </style>
 </defs>
 <g id="Capa_x0020_1">
  <metadata id="CorelCorpID_0Corel-Layer"/>
  <g id="_2421735427280">
   <path class="fil0" d="M3792.31 1504.28c214.4,0 300.13,-100.8 300.13,-291.55 0,-190.75 -92.21,-293.74 -300.13,-293.74 -207.94,0 -289.45,85.73 -289.45,300.14 -1.06,9.16 -1.54,18.56 -1.54,27.87 0,144.4 117.17,261.57 261.57,261.57 11.26,0 22.53,-0.72 33.63,-2.19l-4.21 -2.1z"/>
   <path class="fil1" d="M33.97 1364.9c0,759.4 -39.84,1477.53 -4.3,2240.46 11.83,361.96 161.66,706.59 418.04,962.49 255.01,255.82 599.56,402.8 960.56,409.61 175.83,0 368.77,17.18 551.01,17.18l553.05 0c175.83,0 360.18,14.99 551.01,0 190.83,-14.99 377.37,0 561.72,-17.18 743.94,-27.95 1339.45,-628.32 1361.32,-1372.35 17.19,-360.19 25.77,-735.36 25.77,-1112.73 0,-377.36 -17.17,-752.54 -25.77,-1110.54 -1.94,-366.5 -157.6,-715.75 -428.65,-962.41 -242.85,-255.98 -580.35,-400.95 -933.24,-400.95 -3.32,0 -6.9,0 -10.22,0 -201.52,0 -385.95,-17.18 -578.89,-17.18l-1086.88 0.08c-192.93,0 -377.36,17.18 -561.71,17.18 -350.87,2.84 -686.66,144 -934.61,392.28 -256.48,252.5 -406.38,594.37 -418.21,954.06zm418.04 1116.94c0,-403.04 6.4,-765.34 32.17,-1099.75l-4.29 0c17.66,-239.21 115.14,-465.85 276.64,-643.23 177.78,-159.15 404.84,-253.14 643.23,-265.79 158.66,0 343.01,0 518.84,0 175.85,0 375.18,0 568.12,0 192.94,0 377.36,0 559.61,0 182.23,0 368.77,0 536.02,0 518.52,5.76 938.34,424.45 945.24,943.29 17.18,325.91 23.58,686.1 23.58,1086.96 0,400.86 -15,752.54 -23.58,1104.14 0,3.89 0.08,8.19 0.08,12.23 0,239.62 -100.4,468.53 -276.65,630.76 -181.59,170.73 -419.66,269.18 -668.91,276.72 -170.49,16.85 -343.58,25.68 -515.36,25.68 -3.81,0 -8.19,0 -12,0l-1091.25 0.17c-5.19,-0.17 -11.11,-0.17 -16.37,-0.17 -175.52,0 -351.6,-8.5 -525.81,-25.6 -240.1,-14.18 -467.89,-112.31 -643.32,-276.8 -183.37,-176.25 -289.2,-418.69 -293.82,-673.05 -25.77,-308.74 -32.17,-692.5 -32.17,-1095.56z"/>
   <path class="fil1" d="M2506.97 3335.37c-458.97,0 -831.04,-372.07 -831.04,-831.04 0,-458.97 372.07,-831.04 831.04,-831.04 458.96,0 831.03,372.07 831.03,831.04 0,458.97 -372.07,831.04 -831.03,831.04zm-1286.85 -831.05c0,710.73 576.14,1286.86 1286.85,1286.86 710.7,0 1286.85,-576.13 1286.85,-1286.86 0,-710.71 -576.15,-1286.84 -1286.85,-1286.84 -710.71,0 -1286.85,576.13 -1286.85,1286.84z"/>
  </g>
 </g>
</svg>
