<?xml version="1.0" encoding="UTF-8"?>
<!DOCTYPE svg PUBLIC "-//W3C//DTD SVG 1.1//EN" "http://www.w3.org/Graphics/SVG/1.1/DTD/svg11.dtd">
<!-- Creator: CorelDRAW -->
<svg xmlns="http://www.w3.org/2000/svg" xml:space="preserve" width="100mm" height="100mm" version="1.1" style="shape-rendering:geometricPrecision; text-rendering:geometricPrecision; image-rendering:optimizeQuality; fill-rule:evenodd; clip-rule:evenodd"
viewBox="0 0 10000 10000"
 xmlns:xlink="http://www.w3.org/1999/xlink"
 xmlns:xodm="http://www.corel.com/coreldraw/odm/2003">
 <defs>
  <style type="text/css">
   <![CDATA[
    .fil0 {fill:#ED1D28;fill-rule:nonzero}
   ]]>
  </style>
 </defs>
 <g id="Capa_x0020_1">
  <metadata id="CorelCorpID_0Corel-Layer"/>
  <path class="fil0" d="M5006.73 4.1c2756.27,5.52 4989.17,2243.23 4989.17,4999.6 0,2760.88 -2238.92,4999.8 -4999.7,4999.8 -2760.78,0 -4999.7,-2238.92 -4999.7,-4999.8 0,-4.21 0,-9.03 0,-13.34 0.1,-1 0.1,-4.01 0.1,-5.22 0,-2750.45 2230.59,-4981.04 4981.04,-4981.04 9.73,0 19.46,0 29.09,0zm-3099.6 5671.11c0,238.82 21.27,464.4 31.9,692.68 14.64,448.05 200.1,874.63 517.45,1191.38 315.65,316.65 742.13,498.59 1188.97,507.02 217.65,0 456.47,21.26 682.04,21.26l684.56 0c217.65,0 445.84,18.56 682.04,0 236.21,-18.55 467.11,0 695.29,-21.26 920.86,-34.61 1657.97,-777.74 1685.06,-1698.7 21.26,-445.84 31.89,-910.23 31.89,-1377.33 0,-467.1 -21.26,-931.5 -31.89,-1374.62 -2.41,-453.67 -195.09,-885.96 -530.6,-1191.28 -300.6,-316.85 -718.35,-496.29 -1155.16,-496.29 -4.11,0 -8.53,0 -12.64,0 -249.45,0 -477.73,-21.26 -716.55,-21.26l-1345.34 0.1c-238.81,0 -467.1,21.26 -695.28,21.26 -434.31,3.51 -849.95,178.24 -1156.87,485.56 -317.46,312.54 -503.01,735.71 -517.66,1180.94 0,207.02 0,445.84 -31.89,682.05 -31.9,236.21 -5.32,464.39 -5.32,695.28 0,230.9 0,464.4 0,703.21zm589.17 -2059.27c21.87,-296.09 142.53,-576.63 342.43,-796.19 220.06,-196.99 501.1,-313.34 796.19,-328.99 196.39,0 424.57,0 642.22,0 217.66,0 464.4,0 703.21,0 238.82,0 467.1,0 692.68,0 225.58,0 456.47,0 663.49,0 641.83,7.12 1161.49,525.38 1170.01,1167.6 21.27,403.41 29.19,849.25 29.19,1345.44 0,496.19 -18.56,931.49 -29.19,1366.7 0,4.81 0.1,10.13 0.1,15.15 0,296.59 -124.27,579.94 -342.43,780.74 -224.77,211.33 -519.45,333.2 -827.98,342.53 -211.03,20.86 -425.28,31.79 -637.91,31.79 -4.72,0 -10.13,0 -14.85,0l-1350.75 0.2c-6.42,-0.2 -13.74,-0.2 -20.26,-0.2 -217.25,0 -435.21,-10.53 -650.85,-31.69 -297.2,-17.56 -579.14,-139.02 -796.29,-342.63 -226.98,-218.16 -357.98,-518.26 -363.69,-833.1 -31.9,-382.15 -39.82,-857.17 -39.82,-1356.07 0,-498.9 7.92,-947.34 39.82,-1361.28l-5.32 0zm1398.5 2505.11c273.42,304.11 663.29,478.14 1072.21,478.14 13.24,0 26.78,-0.2 39.62,-0.51 7.32,-0.1 15.65,0.11 23.17,0.11 411.54,0 804.82,-172.62 1083.55,-475.23 305.22,-291.68 478.24,-696.19 478.24,-1118.56 0,-422.16 -173.02,-826.68 -478.24,-1118.35 -288.06,-303.41 -688.16,-475.33 -1106.62,-475.33 -418.25,0 -818.35,171.92 -1106.42,475.23 -304.11,293.38 -476.43,697.39 -477.73,1119.76 8.62,419.26 180.04,819.16 477.73,1114.54l-5.51 0.2zm382.14 -1857.57c192.18,-192.18 453.06,-300.2 724.58,-300.2 271.51,0 532.39,108.02 724.37,300.1 188.87,191.67 294.88,449.95 294.88,719.06 0,7.92 -0.1,16.14 -0.2,23.77 0.2,10.03 0.4,20.46 0.4,30.49 0,254.56 -104.91,498.09 -289.76,672.92 -176.13,197.69 -428.69,310.93 -693.59,310.93 -10.23,0 -20.86,-0.3 -30.99,-0.6 -7.12,0.3 -14.94,0.4 -22.47,0.4 -262.18,0 -512.43,-111.13 -688.36,-305.52 -192.88,-175.42 -302.91,-424.17 -302.91,-684.95 0,-7.83 0.2,-15.85 0.3,-23.47 0,-4.32 -0.1,-9.03 -0.1,-13.44 0,-272.92 109.03,-534.71 302.61,-726.88l-18.76 -2.61zm2319.46 -496.29c265.4,0 371.52,-124.77 371.52,-360.88 0,-236.11 -114.15,-363.59 -371.52,-363.59 -257.37,0 -358.27,106.11 -358.27,371.51 -1.31,11.34 -1.91,22.97 -1.91,34.5 0,178.74 145.04,323.78 323.77,323.78 13.94,0 27.89,-0.91 41.63,-2.71l-5.22 -2.61z"/>
 </g>
</svg>
