<?xml version="1.0" encoding="UTF-8"?>
<!DOCTYPE svg PUBLIC "-//W3C//DTD SVG 1.1//EN" "http://www.w3.org/Graphics/SVG/1.1/DTD/svg11.dtd">
<!-- Creator: CorelDRAW -->
<svg xmlns="http://www.w3.org/2000/svg" xml:space="preserve" width="50mm" height="50mm" version="1.1" style="shape-rendering:geometricPrecision; text-rendering:geometricPrecision; image-rendering:optimizeQuality; fill-rule:evenodd; clip-rule:evenodd"
viewBox="0 0 5000 5000"
 xmlns:xlink="http://www.w3.org/1999/xlink"
 xmlns:xodm="http://www.corel.com/coreldraw/odm/2003">
 <defs>
  <style type="text/css">
   <![CDATA[
    .str0 {stroke:#BFC0C0;stroke-width:20;stroke-miterlimit:22.9256}
    .fil0 {fill:#BFC0C0;fill-rule:nonzero}
   ]]>
  </style>
 </defs>
 <g id="Capa_x0020_1">
  <metadata id="CorelCorpID_0Corel-Layer"/>
  <path class="fil0 str0" d="M4120.95 1075.45c-33.64,-17.31 -66.71,-36.76 -98.39,-57.32 -92.44,-60.94 -177.6,-133.42 -252.79,-214.69 -188.53,-215.72 -258.95,-434.56 -284.88,-587.78l0.98 -0.06c-21.66,-127.18 -12.7,-209.47 -11.35,-209.47l-858.72 0 0 3320.46c0,44.58 0,88.64 -1.87,132.18 0,5.42 -0.52,10.41 -0.84,16.25 0,2.39 0,4.89 -0.52,7.39 0,0.63 0,1.25 0,1.88 -18.38,241.89 -155.99,458.91 -366.87,578.73 -107.98,61.36 -230.12,93.73 -354.35,93.73 -0.27,0 -0.71,0 -0.97,0 -400.09,0 -724.34,-326.23 -724.34,-729.13 0,-402.9 324.25,-729.13 724.34,-729.13 0.17,0 0.52,0 0.7,0 75.44,0 150.7,12.01 222.37,35.31l1.05 -874.33c-67.67,-8.66 -136.22,-13.14 -204.38,-13.14 -374.69,0 -737.69,132.04 -1024.74,372.74 -147.69,128.38 -272.58,282.27 -367.63,453.44 -36.25,62.5 -173.02,313.63 -189.58,721.22 -10.41,231.34 59.06,471.01 92.19,570.07l0 2.08c20.83,58.33 101.56,257.39 233.11,425.19 105.85,134.35 231.54,252.8 371.94,350.8l0 -2.09 2.08 2.09c415.65,282.54 876.57,264.01 876.57,264.01 79.79,-3.24 347.07,0 650.6,-143.85 336.65,-159.47 528.31,-397.06 528.31,-397.06 122.38,-141.81 219.91,-304.02 287.82,-478.52 77.7,-204.26 103.64,-449.25 103.64,-547.16l0.09 -1761.47c10.42,6.25 149.16,98.01 149.16,98.01 0,0 199.89,128.12 511.75,211.56 223.75,59.37 525.19,71.87 525.19,71.87l0 -852.46c-105.62,11.46 -320.09,-21.87 -539.67,-131.35z"/>
 </g>
</svg>
