<?xml version="1.0" encoding="UTF-8"?>
<!DOCTYPE svg PUBLIC "-//W3C//DTD SVG 1.1//EN" "http://www.w3.org/Graphics/SVG/1.1/DTD/svg11.dtd">
<!-- Creator: CorelDRAW -->
<svg xmlns="http://www.w3.org/2000/svg" xml:space="preserve" width="50mm" height="50mm" version="1.1" style="shape-rendering:geometricPrecision; text-rendering:geometricPrecision; image-rendering:optimizeQuality; fill-rule:evenodd; clip-rule:evenodd"
viewBox="0 0 5000 5000"
 xmlns:xlink="http://www.w3.org/1999/xlink"
 xmlns:xodm="http://www.corel.com/coreldraw/odm/2003">
 <defs>
  <style type="text/css">
   <![CDATA[
    .fil0 {fill:#BFC0C0;fill-rule:nonzero}
   ]]>
  </style>
 </defs>
 <g id="Capa_x0020_1">
  <metadata id="CorelCorpID_0Corel-Layer"/>
  <path class="fil0" d="M4233.41 4208.18c191.4,-12.77 373.23,-90.34 514.96,-219.72 105.49,-143.04 169.97,-312.76 185.93,-489.76 36.82,-267.84 57.2,-539.6 59.57,-810.71l-0.25 -362.84c-2.2,-276.35 -22.58,-554.57 -59.32,-827.97 -15.39,-174.47 -79.87,-341.32 -185.84,-481.01 -129.13,-140.42 -311.54,-220.46 -502.45,-220.46 -3.93,0 -8.18,0.09 -12.03,0.09 -683.95,-42.23 -1732.13,-42.23 -1732.13,-42.23l-16.78 -0.08c0,0 -1039.26,0 -1739.49,42.22 -0.41,0.09 -1.31,0.09 -1.97,0.09 -191.32,0 -374.05,79.62 -504.49,219.55 -105.97,139.69 -170.46,306.54 -185.84,481.25 -35.68,273.24 -56.96,550.89 -59.41,827.57l0.25 363.9c2.2,271.36 23.4,542.63 59.57,810.71 15.55,176.92 80.03,346.64 185.35,489.76 157.11,131.59 352.94,208.92 557.6,219.56 405.31,43.29 1705.45,50.65 1705.45,50.65 0,0 1048.02,1.15 1731.97,-50.57l-0.65 0zm-2227.08 -2484.48l1328.19 765.51 -1328.55 765.73 0.36 -1531.24z"/>
 </g>
</svg>
